<svg version="1.1" id="Layer_1" xmlns="http://www.w3.org/2000/svg" xmlns:xlink="http://www.w3.org/1999/xlink" x="0px" y="0px"
	 width="100%" viewBox="0 0 1422 1360" enable-background="new 0 0 1422 1360" xml:space="preserve">
<path fill="#FFFFFF" opacity="1.000000" stroke="none" 
	d="
M804.000000,1361.000000 
	C536.000061,1361.000000 268.500092,1361.000000 1.000108,1361.000000 
	C1.000072,907.666809 1.000072,454.333588 1.000036,1.000290 
	C474.999786,1.000193 948.999573,1.000193 1422.999512,1.000097 
	C1422.999756,454.333038 1422.999756,907.666077 1422.999878,1360.999512 
	C1216.833374,1361.000000 1010.666687,1361.000000 804.000000,1361.000000 
M591.286255,789.640076 
	C591.454529,795.175232 594.697815,796.127625 599.622314,796.117065 
	C661.281372,795.985352 722.940918,796.031433 784.600281,796.031738 
	C795.598999,796.031738 806.598267,795.964111 817.596008,796.067383 
	C821.343506,796.102539 823.505859,794.816406 824.140076,790.876831 
	C827.042847,772.845947 830.178772,754.852356 833.041992,736.815369 
	C836.037903,717.942322 838.674011,699.011780 841.727356,680.148438 
	C846.053650,653.420776 850.673035,626.740784 855.064148,600.023499 
	C859.025818,575.918640 862.976807,551.810242 866.614685,527.655579 
	C867.264099,523.343750 869.051270,521.737610 873.106018,521.198486 
	C885.674438,519.527588 897.626831,508.804993 899.934753,495.924133 
	C901.922546,484.830017 898.564331,475.158569 890.850647,467.645599 
	C885.261841,462.202209 877.564148,459.507874 869.617188,458.866913 
	C865.373840,458.524719 863.015198,456.349304 861.150085,452.933929 
	C856.141357,443.762329 851.090820,434.613190 845.998230,425.487823 
	C834.827820,405.471649 823.429932,385.578522 812.572266,365.394531 
	C810.063477,360.730804 807.163330,358.881500 802.103394,358.887451 
	C738.610962,358.962036 675.118408,358.966034 611.626099,358.863770 
	C607.732788,358.857513 605.379822,360.397827 603.620483,363.575958 
	C596.798096,375.900360 589.947815,388.209381 583.094299,400.516541 
	C573.152100,418.370148 563.312073,436.282898 553.102295,453.982269 
	C551.851074,456.151306 548.780762,457.948090 546.228638,458.557800 
	C539.600281,460.141479 533.228394,461.544830 527.551086,465.982910 
	C516.513245,474.611389 513.094299,494.621796 520.907410,506.255249 
	C526.325195,514.322266 533.620239,519.200073 542.961670,521.143738 
	C546.178162,521.813049 547.675049,523.256958 548.169373,526.678894 
	C549.688843,537.197205 551.599854,547.659363 553.390747,558.137878 
	C556.077942,573.860046 558.904053,589.559387 561.469666,605.301208 
	C565.558594,630.390137 569.456116,655.510254 573.484802,680.609070 
	C575.855774,695.380066 578.347107,710.131775 580.742493,724.898926 
	C584.200745,746.217346 587.621155,767.541870 591.286255,789.640076 
M967.282959,313.749573 
	C972.370300,313.175598 973.785889,315.556549 973.772095,320.469238 
	C973.629883,371.116028 973.650574,421.763428 973.760681,472.410400 
	C973.768494,475.999603 974.376038,479.739441 975.500061,483.146820 
	C979.381287,494.911865 992.328491,500.092163 1003.378113,494.875061 
	C1011.705750,490.943115 1015.557312,484.440430 1015.575195,475.483368 
	C1015.626526,449.826691 1015.612854,424.169891 1015.615723,398.513123 
	C1015.619568,364.526215 1015.706848,330.538727 1015.499695,296.553070 
	C1015.473267,292.207886 1014.701660,287.491425 1012.870422,283.609650 
	C1008.779541,274.937683 1000.928589,272.385040 991.782593,272.394867 
	C932.805420,272.458252 873.828003,272.425842 814.850708,272.429749 
	C813.685181,272.429810 812.518677,272.468231 811.354309,272.524139 
	C799.695740,273.084015 790.005981,283.125336 791.215942,295.075195 
	C792.317749,305.956451 800.621765,313.741089 812.875122,313.743164 
	C864.022095,313.751770 915.169128,313.747314 967.282959,313.749573 
M444.593201,810.500000 
	C444.575439,766.354126 444.588287,722.208130 444.511475,678.062378 
	C444.497833,670.232483 438.567017,661.237366 431.424011,659.022339 
	C423.405365,656.535889 415.753906,657.122620 409.312286,663.691772 
	C405.048248,668.040344 403.343201,673.030823 403.346924,678.967102 
	C403.384705,739.438782 403.365173,799.910522 403.365601,860.382202 
	C403.365631,861.547974 403.309448,862.726868 403.454895,863.877441 
	C404.728363,873.951538 410.933044,881.947327 422.685913,881.866272 
	C477.490997,881.488098 532.300232,881.720581 587.107788,881.633179 
	C589.836182,881.628784 592.884521,881.284302 595.231201,880.048523 
	C602.786987,876.070007 607.424866,866.804688 606.198853,859.265076 
	C604.855957,851.006409 597.204468,843.539429 588.427612,842.181396 
	C585.322998,841.700928 582.143066,841.523682 578.997253,841.520569 
	C536.350525,841.478577 493.703766,841.497620 451.057037,841.484863 
	C444.836670,841.483032 444.624115,841.255066 444.601898,834.989014 
	C444.574158,827.159424 444.593475,819.329651 444.593201,810.500000 
M537.466492,982.292236 
	C517.029846,970.198914 493.170441,978.038513 480.154541,993.730042 
	C465.197296,1011.761963 463.630493,1052.340820 487.651581,1071.160645 
	C499.637634,1080.551392 517.432068,1084.398926 532.051514,1076.799072 
	C535.918091,1074.789062 539.535278,1072.299561 543.641846,1069.802246 
	C544.110535,1071.251709 544.629822,1072.029907 544.549255,1072.739990 
	C543.923950,1078.247314 546.687988,1079.593506 551.673706,1079.348022 
	C558.323364,1079.020630 565.003479,1079.161133 571.666077,1079.304443 
	C575.606323,1079.389160 577.370544,1078.051025 577.353333,1073.802124 
	C577.231140,1043.640259 577.238525,1013.477356 577.343994,983.315308 
	C577.357849,979.356018 575.641907,977.878906 571.993469,977.887146 
	C565.994324,977.900696 559.995178,977.886597 553.996033,977.886536 
	C546.055847,977.886475 546.061646,977.889099 543.978821,985.088196 
	C543.912537,985.317505 543.455444,985.433777 542.728455,985.880554 
	C541.293335,984.928101 539.674805,983.853882 537.466492,982.292236 
M363.606049,976.430725 
	C368.268372,976.430664 372.930725,976.430664 377.593048,976.430664 
	C392.082458,976.430664 392.082458,976.430603 392.081207,961.866638 
	C392.080292,951.018677 392.080292,950.998962 380.981903,950.993958 
	C354.007233,950.981873 327.032532,950.982788 300.057861,951.004395 
	C298.066376,951.006042 296.074219,951.320190 294.083862,951.304138 
	C290.580048,951.275879 289.485596,953.125000 289.563171,956.362488 
	C289.682800,961.354858 289.775970,966.361389 289.529938,971.344666 
	C289.329132,975.411987 291.170227,976.546570 294.900116,976.470886 
	C302.556335,976.315491 310.218170,976.411438 317.877502,976.441772 
	C324.407867,976.467590 324.552551,976.616333 324.554413,983.230225 
	C324.562744,1013.035583 324.555878,1042.840942 324.559357,1072.646240 
	C324.560120,1079.222290 324.579254,1079.249512 331.344360,1079.275024 
	C337.671661,1079.298828 343.999207,1079.306152 350.326447,1079.273926 
	C356.646667,1079.241821 357.187408,1078.688721 357.188019,1072.479858 
	C357.190918,1042.508057 357.237091,1012.535950 357.131317,982.564453 
	C357.117096,978.533081 358.014343,975.999084 363.606049,976.430725 
M944.288696,1079.306152 
	C947.685974,1078.841431 952.390747,1081.018555 952.363647,1074.378296 
	C952.239197,1043.894043 952.278931,1013.408936 952.339050,982.924255 
	C952.346191,979.307800 950.871704,977.773682 947.277283,977.818359 
	C939.782166,977.911621 932.284241,977.920776 924.789307,977.821777 
	C921.285889,977.775574 919.611938,979.028931 919.620483,982.772583 
	C919.690308,1013.423767 919.695923,1044.075317 919.599121,1074.726440 
	C919.587891,1078.283936 921.004272,1079.402344 924.352905,1079.328613 
	C930.679871,1079.189331 937.012268,1079.299072 944.288696,1079.306152 
M627.132996,301.752686 
	C628.045471,299.319214 629.783020,296.869293 629.734863,294.454987 
	C629.448059,280.078094 619.617310,270.415649 604.965332,270.304596 
	C548.495911,269.876465 492.021210,270.108246 435.548553,270.158783 
	C428.973969,270.164673 422.568909,269.901642 416.018707,272.637848 
	C408.051758,275.965912 401.113281,283.769714 401.112549,292.443695 
	C401.107574,353.414246 401.147278,414.384857 401.063324,475.355286 
	C401.052460,483.249237 404.395935,488.930359 410.329712,493.922821 
	C416.613495,499.209869 423.666840,500.726837 430.716034,497.747314 
	C439.647491,493.972198 445.986145,487.544830 445.962250,476.597748 
	C445.849915,425.122894 445.986237,373.647369 445.806335,322.172882 
	C445.788971,317.200836 446.924225,315.709015 452.112213,315.729462 
	C504.086304,315.934509 556.061462,315.860626 608.036377,315.846619 
	C616.645081,315.844299 624.012146,310.607483 627.132996,301.752686 
M1005.058472,881.878845 
	C1012.653564,878.435059 1016.079529,872.739807 1016.058533,864.212952 
	C1015.903320,801.231384 1015.977600,738.249329 1015.967834,675.267395 
	C1015.966492,666.862732 1008.811340,657.784668 1000.698242,656.263367 
	C984.658325,653.255554 971.951172,664.484558 972.013062,679.654297 
	C972.220398,730.472168 972.091919,781.291504 972.088684,832.110229 
	C972.088196,839.104065 972.079285,839.115723 965.239319,839.116333 
	C922.751526,839.120239 880.262817,838.982300 837.776917,839.265076 
	C831.392700,839.307495 824.721985,840.227722 819.272156,844.549805 
	C804.471558,856.287842 809.482666,876.272034 823.444519,881.822327 
	C828.611145,883.876282 834.842529,883.748962 840.590759,883.764771 
	C890.242737,883.901306 939.895447,883.889282 989.547546,883.771484 
	C994.472046,883.759766 999.394226,882.748169 1005.058472,881.878845 
M765.370667,1064.491455 
	C765.371399,1067.991577 765.517273,1071.499268 765.331787,1074.989502 
	C765.148071,1078.446533 766.591919,1079.804688 769.998962,1079.765259 
	C778.331055,1079.668945 786.665466,1079.693481 794.998108,1079.764771 
	C799.064758,1079.799561 800.511292,1077.911499 800.484192,1073.905518 
	C800.358826,1055.406494 801.050842,1036.878540 800.238403,1018.414307 
	C799.514893,1001.970886 793.978760,987.441895 777.706238,979.693237 
	C763.248779,972.808960 749.195984,973.572205 735.670471,982.332458 
	C734.384521,983.165405 732.961548,983.786743 730.815918,984.922546 
	C730.676208,982.136597 730.515625,980.365173 730.510559,978.593323 
	C730.483459,969.093445 730.378174,959.591370 730.548401,950.094421 
	C730.621277,946.025330 729.009521,944.294250 724.980957,944.335754 
	C716.315247,944.425110 707.647034,944.448181 698.981873,944.339539 
	C694.820618,944.287354 693.532776,946.241821 693.540283,950.191101 
	C693.618652,991.357422 693.637207,1032.524170 693.520264,1073.690308 
	C693.507019,1078.350586 695.397156,1079.884033 699.786804,1079.791992 
	C707.616577,1079.627930 715.452454,1079.777832 723.285706,1079.750122 
	C729.945496,1079.726685 730.482300,1079.179077 730.493225,1072.680786 
	C730.522339,1055.347900 730.347473,1038.011597 730.638611,1020.683167 
	C730.824219,1009.636292 743.505005,1001.823120 753.769714,1005.892944 
	C762.527893,1009.365479 765.271057,1016.409668 765.341736,1024.994507 
	C765.447388,1037.826904 765.370667,1050.660889 765.370667,1064.491455 
M1132.938965,984.299255 
	C1134.876709,977.705078 1133.727173,976.116333 1126.929443,976.097595 
	C1119.262817,976.076538 1111.586670,976.325317 1103.932983,976.011658 
	C1099.024658,975.810486 1096.493652,978.110413 1095.147217,982.384460 
	C1094.407227,984.733398 1093.948486,987.185608 1093.046509,989.466187 
	C1090.512939,995.872620 1087.678955,1002.162048 1085.216553,1008.594604 
	C1082.136597,1016.640564 1079.308838,1024.783081 1076.030640,1033.826294 
	C1074.928833,1032.006226 1074.208984,1031.159424 1073.857666,1030.180420 
	C1071.790283,1024.418579 1069.784058,1018.634399 1067.803467,1012.841919 
	C1064.447510,1003.027222 1060.945923,993.256897 1057.860962,983.357117 
	C1056.153564,977.878235 1054.328491,976.103394 1048.347900,976.097412 
	C1037.848022,976.086853 1027.348022,976.096008 1016.848145,976.096863 
	C1014.067017,976.097046 1011.285950,976.096863 1008.642212,976.096863 
	C1007.445801,969.709717 1008.517090,968.011780 1014.204773,966.875427 
	C1017.463074,966.224426 1019.074707,964.652710 1018.968201,961.095154 
	C1018.773804,954.601074 1018.696228,948.086792 1018.991516,941.600220 
	C1019.217041,936.644104 1016.779480,934.716125 1012.405701,935.202393 
	C1006.862305,935.818787 1001.348694,936.837952 995.880066,937.964233 
	C984.377441,940.333069 976.895142,947.399292 973.533630,958.502747 
	C972.157654,963.047668 972.065063,967.968018 971.014282,972.633118 
	C970.720154,973.938660 969.207703,975.780884 968.057434,975.938232 
	C963.718750,976.531494 962.012390,978.813660 962.071960,982.986511 
	C962.152954,988.651978 962.252319,994.325562 962.034241,999.983765 
	C961.898376,1003.509094 963.398499,1005.800781 966.695862,1005.689758 
	C971.379517,1005.531982 971.168579,1008.222534 971.159973,1011.426575 
	C971.104614,1031.926270 971.125061,1052.426147 971.135925,1072.926025 
	C971.139221,1079.126587 972.826050,1080.815918 979.169434,1080.867310 
	C985.668945,1080.919922 992.169250,1080.882690 998.669189,1080.878784 
	C1007.644409,1080.873413 1007.900269,1080.615601 1007.900635,1071.625854 
	C1007.901367,1051.292603 1007.897217,1030.959473 1007.906433,1010.626282 
	C1007.907471,1008.333191 1007.414856,1006.020020 1011.141418,1005.804565 
	C1018.402588,1005.384766 1018.391235,1005.188232 1022.856567,999.731140 
	C1023.450134,1000.818909 1024.064697,1001.718262 1024.460205,1002.705383 
	C1028.019043,1011.586182 1031.539429,1020.482483 1035.071167,1029.374146 
	C1040.625366,1043.357544 1046.383789,1057.265869 1051.575928,1071.382446 
	C1052.731689,1074.524658 1052.986572,1078.832275 1051.786377,1081.862793 
	C1046.495483,1095.222534 1040.542969,1108.321411 1034.781372,1121.493286 
	C1032.787476,1126.051758 1034.234985,1128.759888 1039.154419,1128.847168 
	C1047.151855,1128.989258 1055.159058,1129.062256 1063.151367,1128.813354 
	C1067.644653,1128.673462 1071.647827,1127.184937 1073.270020,1122.231323 
	C1074.037109,1119.888916 1075.017334,1117.612183 1075.975586,1115.337280 
	C1081.673828,1101.808960 1087.369019,1088.279053 1093.117920,1074.772339 
	C1095.648193,1068.827759 1098.301025,1062.935303 1100.901733,1057.020752 
	C1107.065674,1043.002563 1113.212769,1028.976685 1119.403687,1014.970276 
	C1123.818359,1004.982544 1128.292969,995.021423 1132.938965,984.299255 
M876.500122,1001.812561 
	C859.037659,1001.814514 841.575012,1001.867126 824.112976,1001.783386 
	C819.680054,1001.762085 817.724304,1003.658630 817.832153,1008.082581 
	C817.961792,1013.401367 818.003967,1018.730103 817.826843,1024.046021 
	C817.695740,1027.983154 819.454468,1029.362915 823.214722,1029.312744 
	C831.861206,1029.197021 840.510376,1029.287720 849.158447,1029.288086 
	C864.126282,1029.288696 879.094482,1029.219727 894.061584,1029.322998 
	C898.444275,1029.353149 900.466064,1027.824829 900.149841,1023.153809 
	C899.824829,1018.352905 900.101379,1013.512634 900.073792,1008.689880 
	C900.040588,1002.887085 898.967407,1001.850342 892.966675,1001.820007 
	C887.811218,1001.794006 882.655518,1001.814331 876.500122,1001.812561 
M635.216980,1053.323853 
	C631.243347,1052.554932 628.187805,1050.797241 626.557922,1046.721436 
	C626.079712,1045.525635 624.034668,1044.255737 622.679504,1044.224121 
	C613.352966,1044.006104 604.014465,1043.969849 594.692627,1044.270996 
	C593.449585,1044.311157 591.392334,1046.475098 591.227600,1047.838501 
	C590.514038,1053.745728 591.629517,1059.327148 595.091614,1064.445557 
	C603.811951,1077.337524 617.295837,1080.995972 631.390137,1082.661987 
	C637.245911,1083.354126 643.393311,1081.540283 649.411926,1080.902100 
	C662.449524,1079.519897 672.389587,1073.316772 679.231567,1062.068726 
	C684.909485,1052.734497 683.732361,1037.926392 676.545349,1030.317993 
	C670.386841,1023.798584 661.959351,1021.714600 653.909485,1019.148682 
	C646.241150,1016.704285 638.264465,1015.238647 630.543823,1012.938232 
	C628.773560,1012.410706 627.172180,1010.420227 626.154053,1008.709717 
	C625.752625,1008.035278 626.819702,1005.834351 627.797485,1005.100098 
	C633.039978,1001.163025 640.942444,1003.053223 644.580078,1008.386963 
	C645.844421,1010.240967 648.428772,1012.243225 650.484802,1012.325989 
	C659.090759,1012.672485 667.760742,1012.755066 676.335938,1012.057556 
	C681.749939,1011.617188 682.849731,1009.036682 681.581116,1003.675232 
	C678.269409,989.679016 668.450500,981.552734 655.668274,977.449036 
	C644.455383,973.849243 632.862976,973.061707 620.846008,975.898010 
	C604.051025,979.862061 593.372375,989.212158 590.791077,1006.073425 
	C589.712891,1013.116211 590.970825,1020.270325 596.522888,1025.848999 
	C604.799744,1034.165405 615.654480,1036.414795 626.457458,1038.893555 
	C632.061401,1040.179321 637.713623,1041.395752 643.128784,1043.266602 
	C644.545959,1043.756226 646.029114,1046.646118 645.892212,1048.302246 
	C645.759521,1049.906738 643.855774,1051.892700 642.227966,1052.704102 
	C640.432129,1053.599243 638.065125,1053.348511 635.216980,1053.323853 
M401.166656,984.820190 
	C401.166656,1014.306458 401.159668,1043.792725 401.172760,1073.278931 
	C401.175232,1078.845825 402.987183,1080.746094 408.582153,1080.826904 
	C415.244324,1080.923340 421.908936,1080.854004 428.572479,1080.852661 
	C437.787292,1080.850708 438.823029,1079.821167 438.832062,1070.564697 
	C438.846222,1056.071533 438.594147,1041.572388 438.933533,1027.087036 
	C439.180054,1016.564331 443.860901,1012.099365 455.106781,1010.941467 
	C456.755707,1010.771729 458.455383,1010.743042 460.098389,1010.934143 
	C464.669312,1011.465576 467.301605,1009.514771 467.324768,1004.945435 
	C467.369202,996.172302 467.289124,987.388123 466.797546,978.634521 
	C466.726501,977.369507 463.900024,975.071716 462.672516,975.268799 
	C457.864105,976.040955 453.015717,977.205627 448.516144,979.042603 
	C445.314240,980.349731 442.647064,982.966736 439.496490,985.170410 
	C439.044189,983.873840 438.600708,983.115662 438.533173,982.325378 
	C438.097412,977.227539 435.270996,975.767761 430.390991,976.024109 
	C423.413452,976.390625 416.402405,976.105103 409.405701,976.123596 
	C403.004761,976.140564 401.688568,977.399963 401.166656,984.820190 
M924.945923,970.686646 
	C937.175476,977.002258 945.617432,972.656494 951.795532,965.740906 
	C956.579895,960.385437 957.124451,949.693054 953.057068,943.595642 
	C948.367920,936.566162 941.553650,933.324890 932.944275,934.356506 
	C925.377686,935.263123 918.459167,941.105591 916.399780,948.342102 
	C913.769287,957.585327 917.677795,964.402039 924.945923,970.686646 
z"/>
<path fill="#28937B" opacity="1.000000" stroke="none" 
	d="
M591.171997,789.251953 
	C587.621155,767.541870 584.200745,746.217346 580.742493,724.898926 
	C578.347107,710.131775 575.855774,695.380066 573.484802,680.609070 
	C569.456116,655.510254 565.558594,630.390137 561.469666,605.301208 
	C558.904053,589.559387 556.077942,573.860046 553.390747,558.137878 
	C551.599854,547.659363 549.688843,537.197205 548.169373,526.678894 
	C547.675049,523.256958 546.178162,521.813049 542.961670,521.143738 
	C533.620239,519.200073 526.325195,514.322266 520.907410,506.255249 
	C513.094299,494.621796 516.513245,474.611389 527.551086,465.982910 
	C533.228394,461.544830 539.600281,460.141479 546.228638,458.557800 
	C548.780762,457.948090 551.851074,456.151306 553.102295,453.982269 
	C563.312073,436.282898 573.152100,418.370148 583.094299,400.516541 
	C589.947815,388.209381 596.798096,375.900360 603.620483,363.575958 
	C605.379822,360.397827 607.732788,358.857513 611.626099,358.863770 
	C675.118408,358.966034 738.610962,358.962036 802.103394,358.887451 
	C807.163330,358.881500 810.063477,360.730804 812.572266,365.394531 
	C823.429932,385.578522 834.827820,405.471649 845.998230,425.487823 
	C851.090820,434.613190 856.141357,443.762329 861.150085,452.933929 
	C863.015198,456.349304 865.373840,458.524719 869.617188,458.866913 
	C877.564148,459.507874 885.261841,462.202209 890.850647,467.645599 
	C898.564331,475.158569 901.922546,484.830017 899.934753,495.924133 
	C897.626831,508.804993 885.674438,519.527588 873.106018,521.198486 
	C869.051270,521.737610 867.264099,523.343750 866.614685,527.655579 
	C862.976807,551.810242 859.025818,575.918640 855.064148,600.023499 
	C850.673035,626.740784 846.053650,653.420776 841.727356,680.148438 
	C838.674011,699.011780 836.037903,717.942322 833.041992,736.815369 
	C830.178772,754.852356 827.042847,772.845947 824.140076,790.876831 
	C823.505859,794.816406 821.343506,796.102539 817.596008,796.067383 
	C806.598267,795.964111 795.598999,796.031738 784.600281,796.031738 
	C722.940918,796.031433 661.281372,795.985352 599.622314,796.117065 
	C594.697815,796.127625 591.454529,795.175232 591.171997,789.251953 
M778.015137,419.622955 
	C777.731689,421.599792 777.135742,423.591034 777.225830,425.550690 
	C777.456238,430.562958 775.303955,431.950043 770.356201,431.927490 
	C728.709473,431.737549 687.061340,431.774689 645.414062,431.880737 
	C640.783691,431.892517 638.452026,430.533691 637.841614,425.578064 
	C636.195190,412.212341 634.066956,398.906494 632.188416,385.568665 
	C631.064148,377.586548 631.104431,377.828003 623.104919,377.534454 
	C619.093689,377.387268 616.938843,379.085968 615.288574,382.321198 
	C613.779907,385.278809 612.129883,388.165375 610.505920,391.062958 
	C599.044861,411.512482 587.557739,431.947510 576.136292,452.419159 
	C575.143921,454.197876 574.564453,456.206970 573.380066,459.128082 
	C576.674988,459.128082 578.941772,459.128082 581.208496,459.128082 
	C642.513794,459.128204 703.819031,459.128479 765.124329,459.128418 
	C788.613586,459.128387 812.102844,459.135681 835.592102,459.122070 
	C842.071960,459.118317 842.367676,458.757385 839.389038,453.279236 
	C834.238525,443.806396 828.922485,434.423492 823.669128,425.006622 
	C815.574951,410.497467 807.494446,395.980621 799.364380,381.491608 
	C797.260742,377.742615 791.990662,375.902679 786.652771,378.059052 
	C784.819397,378.799683 783.445862,382.271301 783.044250,384.691406 
	C781.166870,396.005066 779.702271,407.387177 778.015137,419.622955 
M669.500000,477.778412 
	C630.859314,477.778473 592.218567,477.777008 553.577881,477.782776 
	C551.413208,477.783112 549.231506,477.679901 547.087097,477.904785 
	C540.163208,478.630951 535.435730,484.300995 535.766724,491.312561 
	C536.067200,497.677185 540.718750,501.959106 547.655884,502.217346 
	C549.485901,502.285492 551.319580,502.268250 553.151611,502.268280 
	C656.582214,502.270416 760.012817,502.271088 863.443420,502.264679 
	C865.440491,502.264526 867.463806,502.370392 869.430237,502.100983 
	C879.514160,500.719482 884.018738,490.430817 877.977234,482.351105 
	C874.738037,478.019165 869.798218,477.771362 864.869568,477.772278 
	C800.079712,477.784485 735.289856,477.779083 669.500000,477.778412 
M666.512695,377.324066 
	C663.013794,377.324677 659.508789,377.454773 656.017578,377.291107 
	C652.179626,377.111176 650.389099,378.552612 650.932190,382.557007 
	C651.982178,390.298828 652.996521,398.046326 653.922424,405.803772 
	C654.838013,413.474640 654.999023,413.697479 662.841675,413.700226 
	C692.665771,413.710754 722.489868,413.705261 752.313965,413.702026 
	C753.479858,413.701904 754.645752,413.663788 755.811646,413.643188 
	C758.724854,413.591675 760.363892,412.307007 760.729187,409.229736 
	C761.709229,400.972992 763.031433,392.754120 763.883362,384.485779 
	C764.614746,377.386963 764.385925,377.327423 756.980774,377.326111 
	C727.156677,377.320770 697.332581,377.324280 666.512695,377.324066 
M750.500000,779.005859 
	C768.163940,779.005554 785.827820,779.010193 803.491760,778.999390 
	C805.981018,778.997864 808.580017,779.385254 809.001465,775.635010 
	C809.461914,771.538208 810.351440,767.490967 811.004944,763.414307 
	C813.282959,749.202637 815.594238,734.995972 817.787781,720.771240 
	C819.653259,708.674561 821.374939,696.555664 823.157898,684.446289 
	C824.243713,677.071716 825.179321,669.671204 826.448547,662.328369 
	C827.796692,654.529175 829.625000,646.812256 830.943542,639.008789 
	C832.648193,628.920288 833.999634,618.772583 835.607788,608.667053 
	C836.984924,600.013123 838.629517,591.400757 839.934448,582.736633 
	C841.190125,574.399780 842.088501,566.009644 843.276794,557.661865 
	C844.814148,546.863098 846.166687,536.021912 848.230591,525.320923 
	C849.249268,520.039124 846.889771,519.897156 842.977234,519.899475 
	C752.825562,519.952881 662.673828,519.938904 572.522156,519.945496 
	C566.692627,519.945862 565.269592,521.811829 566.355896,527.551880 
	C567.339600,532.749451 568.175903,537.975769 569.024780,543.197876 
	C570.192261,550.379456 571.232849,557.582336 572.469788,564.751648 
	C573.904175,573.065491 575.663269,581.325867 576.975647,589.657593 
	C579.217102,603.888428 581.064636,618.181885 583.366333,632.402344 
	C585.747070,647.110840 588.585999,661.744751 591.008545,676.446899 
	C592.865845,687.718933 594.318726,699.057007 596.073242,710.346741 
	C599.301880,731.122131 602.873779,751.848816 605.729553,772.674377 
	C606.479980,778.147156 608.841064,779.073547 613.522705,779.063416 
	C658.848328,778.965576 704.174194,779.005371 750.500000,779.005859 
z"/>
<path fill="#D5EE0C" opacity="1.000000" stroke="none" 
	d="
M966.799561,313.748596 
	C915.169128,313.747314 864.022095,313.751770 812.875122,313.743164 
	C800.621765,313.741089 792.317749,305.956451 791.215942,295.075195 
	C790.005981,283.125336 799.695740,273.084015 811.354309,272.524139 
	C812.518677,272.468231 813.685181,272.429810 814.850708,272.429749 
	C873.828003,272.425842 932.805420,272.458252 991.782593,272.394867 
	C1000.928589,272.385040 1008.779541,274.937683 1012.870422,283.609650 
	C1014.701660,287.491425 1015.473267,292.207886 1015.499695,296.553070 
	C1015.706848,330.538727 1015.619568,364.526215 1015.615723,398.513123 
	C1015.612854,424.169891 1015.626526,449.826691 1015.575195,475.483368 
	C1015.557312,484.440430 1011.705750,490.943115 1003.378113,494.875061 
	C992.328491,500.092163 979.381287,494.911865 975.500061,483.146820 
	C974.376038,479.739441 973.768494,475.999603 973.760681,472.410400 
	C973.650574,421.763428 973.629883,371.116028 973.772095,320.469238 
	C973.785889,315.556549 972.370300,313.175598 966.799561,313.748596 
z"/>
<path fill="#D5EE0C" opacity="1.000000" stroke="none" 
	d="
M444.592834,811.000000 
	C444.593475,819.329651 444.574158,827.159424 444.601898,834.989014 
	C444.624115,841.255066 444.836670,841.483032 451.057037,841.484863 
	C493.703766,841.497620 536.350525,841.478577 578.997253,841.520569 
	C582.143066,841.523682 585.322998,841.700928 588.427612,842.181396 
	C597.204468,843.539429 604.855957,851.006409 606.198853,859.265076 
	C607.424866,866.804688 602.786987,876.070007 595.231201,880.048523 
	C592.884521,881.284302 589.836182,881.628784 587.107788,881.633179 
	C532.300232,881.720581 477.490997,881.488098 422.685913,881.866272 
	C410.933044,881.947327 404.728363,873.951538 403.454895,863.877441 
	C403.309448,862.726868 403.365631,861.547974 403.365601,860.382202 
	C403.365173,799.910522 403.384705,739.438782 403.346924,678.967102 
	C403.343201,673.030823 405.048248,668.040344 409.312286,663.691772 
	C415.753906,657.122620 423.405365,656.535889 431.424011,659.022339 
	C438.567017,661.237366 444.497833,670.232483 444.511475,678.062378 
	C444.588287,722.208130 444.575439,766.354126 444.592834,811.000000 
z"/>
<path fill="#259279" opacity="1.000000" stroke="none" 
	d="
M537.761353,982.536011 
	C539.674805,983.853882 541.293335,984.928101 542.728455,985.880554 
	C543.455444,985.433777 543.912537,985.317505 543.978821,985.088196 
	C546.061646,977.889099 546.055847,977.886475 553.996033,977.886536 
	C559.995178,977.886597 565.994324,977.900696 571.993469,977.887146 
	C575.641907,977.878906 577.357849,979.356018 577.343994,983.315308 
	C577.238525,1013.477356 577.231140,1043.640259 577.353333,1073.802124 
	C577.370544,1078.051025 575.606323,1079.389160 571.666077,1079.304443 
	C565.003479,1079.161133 558.323364,1079.020630 551.673706,1079.348022 
	C546.687988,1079.593506 543.923950,1078.247314 544.549255,1072.739990 
	C544.629822,1072.029907 544.110535,1071.251709 543.641846,1069.802246 
	C539.535278,1072.299561 535.918091,1074.789062 532.051514,1076.799072 
	C517.432068,1084.398926 499.637634,1080.551392 487.651581,1071.160645 
	C463.630493,1052.340820 465.197296,1011.761963 480.154541,993.730042 
	C493.170441,978.038513 517.029846,970.198914 537.761353,982.536011 
M507.686859,1046.795532 
	C508.476471,1047.405762 509.242615,1048.049438 510.059265,1048.620972 
	C522.477173,1057.310425 535.105957,1054.411987 542.486389,1041.205322 
	C546.517883,1033.991333 546.180481,1026.205688 543.899048,1018.895691 
	C539.092957,1003.497070 520.898621,999.180359 508.757874,1009.657471 
	C501.067413,1016.294128 497.829926,1035.110352 507.686859,1046.795532 
z"/>
<path fill="#27937A" opacity="1.000000" stroke="none" 
	d="
M363.113892,976.432251 
	C358.014343,975.999084 357.117096,978.533081 357.131317,982.564453 
	C357.237091,1012.535950 357.190918,1042.508057 357.188019,1072.479858 
	C357.187408,1078.688721 356.646667,1079.241821 350.326447,1079.273926 
	C343.999207,1079.306152 337.671661,1079.298828 331.344360,1079.275024 
	C324.579254,1079.249512 324.560120,1079.222290 324.559357,1072.646240 
	C324.555878,1042.840942 324.562744,1013.035583 324.554413,983.230225 
	C324.552551,976.616333 324.407867,976.467590 317.877502,976.441772 
	C310.218170,976.411438 302.556335,976.315491 294.900116,976.470886 
	C291.170227,976.546570 289.329132,975.411987 289.529938,971.344666 
	C289.775970,966.361389 289.682800,961.354858 289.563171,956.362488 
	C289.485596,953.125000 290.580048,951.275879 294.083862,951.304138 
	C296.074219,951.320190 298.066376,951.006042 300.057861,951.004395 
	C327.032532,950.982788 354.007233,950.981873 380.981903,950.993958 
	C392.080292,950.998962 392.080292,951.018677 392.081207,961.866638 
	C392.082458,976.430603 392.082458,976.430664 377.593048,976.430664 
	C372.930725,976.430664 368.268372,976.430664 363.113892,976.432251 
z"/>
<path fill="#2A947C" opacity="1.000000" stroke="none" 
	d="
M943.815552,1079.305664 
	C937.012268,1079.299072 930.679871,1079.189331 924.352905,1079.328613 
	C921.004272,1079.402344 919.587891,1078.283936 919.599121,1074.726440 
	C919.695923,1044.075317 919.690308,1013.423767 919.620483,982.772583 
	C919.611938,979.028931 921.285889,977.775574 924.789307,977.821777 
	C932.284241,977.920776 939.782166,977.911621 947.277283,977.818359 
	C950.871704,977.773682 952.346191,979.307800 952.339050,982.924255 
	C952.278931,1013.408936 952.239197,1043.894043 952.363647,1074.378296 
	C952.390747,1081.018555 947.685974,1078.841431 943.815552,1079.305664 
z"/>
<path fill="#EFF8A8" opacity="1.000000" stroke="none" 
	d="
M627.051086,302.127563 
	C624.012146,310.607483 616.645081,315.844299 608.036377,315.846619 
	C556.061462,315.860626 504.086304,315.934509 452.112213,315.729462 
	C446.924225,315.709015 445.788971,317.200836 445.806335,322.172882 
	C445.986237,373.647369 445.849915,425.122894 445.962250,476.597748 
	C445.986145,487.544830 439.647491,493.972198 430.716034,497.747314 
	C423.666840,500.726837 416.613495,499.209869 410.329712,493.922821 
	C404.395935,488.930359 401.052460,483.249237 401.063324,475.355286 
	C401.147278,414.384857 401.107574,353.414246 401.112549,292.443695 
	C401.113281,283.769714 408.051758,275.965912 416.018707,272.637848 
	C422.568909,269.901642 428.973969,270.164673 435.548553,270.158783 
	C492.021210,270.108246 548.495911,269.876465 604.965332,270.304596 
	C619.617310,270.415649 629.448059,280.078094 629.734863,294.454987 
	C629.783020,296.869293 628.045471,299.319214 627.051086,302.127563 
M613.448120,275.442627 
	C609.807068,275.197449 606.166260,274.743713 602.524902,274.739105 
	C562.030029,274.688019 521.535156,274.703369 481.040222,274.707428 
	C461.876007,274.709320 442.710999,274.639709 423.548462,274.823364 
	C420.515594,274.852417 417.151337,275.419464 414.533630,276.834991 
	C407.668732,280.547241 404.662872,286.654968 404.672943,294.547699 
	C404.749359,354.373413 404.716217,414.199249 404.719177,474.025055 
	C404.719208,475.024841 404.691711,476.028351 404.764130,477.023804 
	C405.760956,490.734253 419.129822,499.115662 431.291534,493.548615 
	C440.140533,489.497894 443.127716,481.881409 443.134949,472.777557 
	C443.175385,421.950653 443.154999,371.123657 443.159729,320.296722 
	C443.160461,312.524811 443.344055,312.330231 450.936981,312.329407 
	C502.597137,312.323792 554.257324,312.338074 605.917419,312.285767 
	C608.194519,312.283447 610.654053,312.142822 612.714111,311.298920 
	C619.545776,308.500214 624.377991,303.987213 625.346619,296.054138 
	C626.516968,286.468262 622.141052,280.176300 613.448120,275.442627 
z"/>
<path fill="#EFF8A8" opacity="1.000000" stroke="none" 
	d="
M1004.687988,882.039673 
	C999.394226,882.748169 994.472046,883.759766 989.547546,883.771484 
	C939.895447,883.889282 890.242737,883.901306 840.590759,883.764771 
	C834.842529,883.748962 828.611145,883.876282 823.444519,881.822327 
	C809.482666,876.272034 804.471558,856.287842 819.272156,844.549805 
	C824.721985,840.227722 831.392700,839.307495 837.776917,839.265076 
	C880.262817,838.982300 922.751526,839.120239 965.239319,839.116333 
	C972.079285,839.115723 972.088196,839.104065 972.088684,832.110229 
	C972.091919,781.291504 972.220398,730.472168 972.013062,679.654297 
	C971.951172,664.484558 984.658325,653.255554 1000.698242,656.263367 
	C1008.811340,657.784668 1015.966492,666.862732 1015.967834,675.267395 
	C1015.977600,738.249329 1015.903320,801.231384 1016.058533,864.212952 
	C1016.079529,872.739807 1012.653564,878.435059 1004.687988,882.039673 
M975.822388,821.499756 
	C975.816101,826.997559 975.666016,832.500183 975.853271,837.991394 
	C975.981079,841.740601 974.332886,843.059753 970.785950,842.950012 
	C966.625244,842.821289 962.457092,842.936951 958.292175,842.937134 
	C917.975403,842.939209 877.658081,843.062744 837.342224,842.871765 
	C823.538574,842.806396 813.006653,851.376953 814.575378,864.773315 
	C815.505310,872.714355 822.602478,880.304932 830.607788,880.310120 
	C886.251526,880.346558 941.895325,880.349548 997.539062,880.307312 
	C1005.598328,880.301208 1013.338501,872.736084 1013.346680,864.670898 
	C1013.410583,801.696899 1013.322876,738.722717 1013.455994,675.748962 
	C1013.471985,668.168884 1003.488708,658.231689 994.115723,659.227417 
	C983.918213,660.310608 975.586060,667.758606 975.677429,679.559021 
	C976.041199,726.536865 975.823975,773.519226 975.822388,821.499756 
z"/>
<path fill="#6CB5A5" opacity="1.000000" stroke="none" 
	d="
M765.371094,1063.992798 
	C765.370667,1050.660889 765.447388,1037.826904 765.341736,1024.994507 
	C765.271057,1016.409668 762.527893,1009.365479 753.769714,1005.892944 
	C743.505005,1001.823120 730.824219,1009.636292 730.638611,1020.683167 
	C730.347473,1038.011597 730.522339,1055.347900 730.493225,1072.680786 
	C730.482300,1079.179077 729.945496,1079.726685 723.285706,1079.750122 
	C715.452454,1079.777832 707.616577,1079.627930 699.786804,1079.791992 
	C695.397156,1079.884033 693.507019,1078.350586 693.520264,1073.690308 
	C693.637207,1032.524170 693.618652,991.357422 693.540283,950.191101 
	C693.532776,946.241821 694.820618,944.287354 698.981873,944.339539 
	C707.647034,944.448181 716.315247,944.425110 724.980957,944.335754 
	C729.009521,944.294250 730.621277,946.025330 730.548401,950.094421 
	C730.378174,959.591370 730.483459,969.093445 730.510559,978.593323 
	C730.515625,980.365173 730.676208,982.136597 730.815918,984.922546 
	C732.961548,983.786743 734.384521,983.165405 735.670471,982.332458 
	C749.195984,973.572205 763.248779,972.808960 777.706238,979.693237 
	C793.978760,987.441895 799.514893,1001.970886 800.238403,1018.414307 
	C801.050842,1036.878540 800.358826,1055.406494 800.484192,1073.905518 
	C800.511292,1077.911499 799.064758,1079.799561 794.998108,1079.764771 
	C786.665466,1079.693481 778.331055,1079.668945 769.998962,1079.765259 
	C766.591919,1079.804688 765.148071,1078.446533 765.331787,1074.989502 
	C765.517273,1071.499268 765.371399,1067.991577 765.371094,1063.992798 
M726.159424,963.501648 
	C726.158997,959.503906 725.987366,955.496521 726.210388,951.511292 
	C726.400757,948.109741 725.326172,946.690552 721.720764,946.872070 
	C716.570129,947.131348 711.396790,946.935791 706.233093,946.938049 
	C698.882324,946.941345 697.960815,947.602844 697.942688,955.217285 
	C697.849060,994.527527 697.923706,1033.838135 697.847046,1073.148560 
	C697.841003,1076.221313 698.926208,1077.252075 701.921692,1077.182617 
	C708.247925,1077.035767 714.591614,1076.908081 720.905457,1077.224976 
	C725.068726,1077.433838 726.301208,1076.060059 726.249756,1071.895142 
	C726.039612,1054.907715 725.925842,1037.910889 726.282776,1020.928040 
	C726.461792,1012.410767 731.200195,1005.788086 739.084351,1003.111328 
	C745.193420,1001.037170 752.153687,1000.609070 758.362915,1004.107666 
	C766.395447,1008.633545 769.711182,1015.952637 769.779724,1024.827759 
	C769.901917,1040.650879 769.910583,1056.476807 769.741699,1072.299194 
	C769.702881,1075.934448 770.654480,1077.403442 774.491211,1077.213257 
	C780.140686,1076.933350 785.825562,1076.923950 791.473877,1077.215820 
	C795.362122,1077.416870 796.249390,1075.868652 796.178711,1072.275024 
	C795.975708,1061.951660 796.234497,1051.619751 796.070190,1041.295044 
	C795.914246,1031.501587 796.148987,1021.627625 794.958435,1011.943115 
	C793.275391,998.252380 787.511780,986.310242 773.310974,981.887756 
	C761.826721,978.311279 749.822632,977.115356 739.099854,985.091248 
	C735.630371,987.671936 732.305908,990.447571 727.935974,993.909912 
	C724.720703,983.283752 726.819763,973.785767 726.159424,963.501648 
z"/>
<path fill="#BCDDD5" opacity="1.000000" stroke="none" 
	d="
M1132.839966,984.673828 
	C1128.292969,995.021423 1123.818359,1004.982544 1119.403687,1014.970276 
	C1113.212769,1028.976685 1107.065674,1043.002563 1100.901733,1057.020752 
	C1098.301025,1062.935303 1095.648193,1068.827759 1093.117920,1074.772339 
	C1087.369019,1088.279053 1081.673828,1101.808960 1075.975586,1115.337280 
	C1075.017334,1117.612183 1074.037109,1119.888916 1073.270020,1122.231323 
	C1071.647827,1127.184937 1067.644653,1128.673462 1063.151367,1128.813354 
	C1055.159058,1129.062256 1047.151855,1128.989258 1039.154419,1128.847168 
	C1034.234985,1128.759888 1032.787476,1126.051758 1034.781372,1121.493286 
	C1040.542969,1108.321411 1046.495483,1095.222534 1051.786377,1081.862793 
	C1052.986572,1078.832275 1052.731689,1074.524658 1051.575928,1071.382446 
	C1046.383789,1057.265869 1040.625366,1043.357544 1035.071167,1029.374146 
	C1031.539429,1020.482483 1028.019043,1011.586182 1024.460205,1002.705383 
	C1024.064697,1001.718262 1023.450134,1000.818909 1022.856567,999.731140 
	C1018.391235,1005.188232 1018.402588,1005.384766 1011.141418,1005.804565 
	C1007.414856,1006.020020 1007.907471,1008.333191 1007.906433,1010.626282 
	C1007.897217,1030.959473 1007.901367,1051.292603 1007.900635,1071.625854 
	C1007.900269,1080.615601 1007.644409,1080.873413 998.669189,1080.878784 
	C992.169250,1080.882690 985.668945,1080.919922 979.169434,1080.867310 
	C972.826050,1080.815918 971.139221,1079.126587 971.135925,1072.926025 
	C971.125061,1052.426147 971.104614,1031.926270 971.159973,1011.426575 
	C971.168579,1008.222534 971.379517,1005.531982 966.695862,1005.689758 
	C963.398499,1005.800781 961.898376,1003.509094 962.034241,999.983765 
	C962.252319,994.325562 962.152954,988.651978 962.071960,982.986511 
	C962.012390,978.813660 963.718750,976.531494 968.057434,975.938232 
	C969.207703,975.780884 970.720154,973.938660 971.014282,972.633118 
	C972.065063,967.968018 972.157654,963.047668 973.533630,958.502747 
	C976.895142,947.399292 984.377441,940.333069 995.880066,937.964233 
	C1001.348694,936.837952 1006.862305,935.818787 1012.405701,935.202393 
	C1016.779480,934.716125 1019.217041,936.644104 1018.991516,941.600220 
	C1018.696228,948.086792 1018.773804,954.601074 1018.968201,961.095154 
	C1019.074707,964.652710 1017.463074,966.224426 1014.204773,966.875427 
	C1008.517090,968.011780 1007.445801,969.709717 1008.642212,976.096863 
	C1011.285950,976.096863 1014.067017,976.097046 1016.848145,976.096863 
	C1027.348022,976.096008 1037.848022,976.086853 1048.347900,976.097412 
	C1054.328491,976.103394 1056.153564,977.878235 1057.860962,983.357117 
	C1060.945923,993.256897 1064.447510,1003.027222 1067.803467,1012.841919 
	C1069.784058,1018.634399 1071.790283,1024.418579 1073.857666,1030.180420 
	C1074.208984,1031.159424 1074.928833,1032.006226 1076.030640,1033.826294 
	C1079.308838,1024.783081 1082.136597,1016.640564 1085.216553,1008.594604 
	C1087.678955,1002.162048 1090.512939,995.872620 1093.046509,989.466187 
	C1093.948486,987.185608 1094.407227,984.733398 1095.147217,982.384460 
	C1096.493652,978.110413 1099.024658,975.810486 1103.932983,976.011658 
	C1111.586670,976.325317 1119.262817,976.076538 1126.929443,976.097595 
	C1133.727173,976.116333 1134.876709,977.705078 1132.839966,984.673828 
M1054.953003,1081.217407 
	C1049.330078,1094.363037 1043.726562,1107.517212 1038.073486,1120.649902 
	C1036.153564,1125.109985 1036.616577,1126.048584 1041.336792,1126.096558 
	C1048.833496,1126.172729 1056.334351,1126.002197 1063.828125,1126.170776 
	C1067.232544,1126.247437 1068.790771,1124.718994 1070.066040,1121.706787 
	C1077.066406,1105.172363 1084.283691,1088.729980 1091.413208,1072.250244 
	C1104.147827,1042.814819 1116.815552,1013.350220 1129.669922,983.967224 
	C1131.397095,980.019226 1130.422974,978.825195 1126.442383,978.860596 
	C1119.111938,978.925720 1111.776978,979.009827 1104.451050,978.817749 
	C1100.904419,978.724792 1099.127808,980.019226 1097.882080,983.420776 
	C1091.478149,1000.906372 1084.842896,1018.307678 1078.190674,1035.701050 
	C1077.573730,1037.314331 1076.269775,1038.664673 1074.706055,1041.002319 
	C1073.652588,1038.556885 1073.068726,1037.405273 1072.649048,1036.196777 
	C1066.544556,1018.617249 1060.299927,1001.083191 1054.507568,983.401184 
	C1053.310669,979.747620 1051.612183,978.795471 1048.167603,978.828308 
	C1035.841309,978.945862 1023.512512,978.930969 1011.185608,978.838257 
	C1006.108276,978.800110 1004.754272,976.842651 1005.526062,971.887024 
	C1006.127747,968.023804 1007.850098,965.329834 1011.865906,964.585266 
	C1015.724487,963.869873 1016.955872,961.359741 1016.906921,957.749817 
	C1016.839172,952.752319 1016.732300,947.746704 1016.941040,942.757019 
	C1017.098511,938.992859 1015.406860,937.427002 1011.896484,937.841248 
	C1007.305237,938.383057 1002.727661,939.087585 998.173340,939.887512 
	C986.271484,941.978027 979.016602,949.256348 975.932739,960.672241 
	C974.817627,964.800049 974.387451,969.163330 974.105530,973.449524 
	C973.883179,976.830872 972.847900,978.967346 969.175415,978.858887 
	C965.886841,978.761719 964.809631,980.397522 964.881592,983.489746 
	C965.005432,988.818481 964.653015,994.173706 965.084167,999.470276 
	C965.208679,1001.000000 967.334961,1003.599182 968.534729,1003.594177 
	C973.540710,1003.573242 974.121338,1006.164185 974.093201,1010.287292 
	C973.950989,1031.113037 974.111206,1051.940796 973.962646,1072.766357 
	C973.930237,1077.308838 975.601257,1079.108154 980.124390,1078.959717 
	C986.448914,1078.751831 992.788879,1078.775635 999.115356,1078.949951 
	C1003.488525,1079.070435 1005.295349,1077.608276 1005.244202,1072.883545 
	C1005.022583,1052.392456 1005.144104,1031.897705 1005.151001,1011.404236 
	C1005.153442,1004.270813 1005.162964,1004.160400 1012.207703,1003.914185 
	C1016.350830,1003.769348 1018.273682,1002.143066 1018.000610,997.787231 
	C1017.731262,993.490662 1017.941833,989.164124 1017.941833,984.850708 
	C1020.375793,986.712280 1021.803223,988.597046 1022.648560,990.714233 
	C1033.498291,1017.886963 1044.329834,1045.067627 1054.939087,1072.334595 
	C1055.872070,1074.732544 1055.209961,1077.751099 1054.953003,1081.217407 
z"/>
<path fill="#2A947C" opacity="1.000000" stroke="none" 
	d="
M877.000000,1001.813354 
	C882.655518,1001.814331 887.811218,1001.794006 892.966675,1001.820007 
	C898.967407,1001.850342 900.040588,1002.887085 900.073792,1008.689880 
	C900.101379,1013.512634 899.824829,1018.352905 900.149841,1023.153809 
	C900.466064,1027.824829 898.444275,1029.353149 894.061584,1029.322998 
	C879.094482,1029.219727 864.126282,1029.288696 849.158447,1029.288086 
	C840.510376,1029.287720 831.861206,1029.197021 823.214722,1029.312744 
	C819.454468,1029.362915 817.695740,1027.983154 817.826843,1024.046021 
	C818.003967,1018.730103 817.961792,1013.401367 817.832153,1008.082581 
	C817.724304,1003.658630 819.680054,1001.762085 824.112976,1001.783386 
	C841.575012,1001.867126 859.037659,1001.814514 877.000000,1001.813354 
z"/>
<path fill="#B6DAD2" opacity="1.000000" stroke="none" 
	d="
M635.581970,1053.460449 
	C638.065125,1053.348511 640.432129,1053.599243 642.227966,1052.704102 
	C643.855774,1051.892700 645.759521,1049.906738 645.892212,1048.302246 
	C646.029114,1046.646118 644.545959,1043.756226 643.128784,1043.266602 
	C637.713623,1041.395752 632.061401,1040.179321 626.457458,1038.893555 
	C615.654480,1036.414795 604.799744,1034.165405 596.522888,1025.848999 
	C590.970825,1020.270325 589.712891,1013.116211 590.791077,1006.073425 
	C593.372375,989.212158 604.051025,979.862061 620.846008,975.898010 
	C632.862976,973.061707 644.455383,973.849243 655.668274,977.449036 
	C668.450500,981.552734 678.269409,989.679016 681.581116,1003.675232 
	C682.849731,1009.036682 681.749939,1011.617188 676.335938,1012.057556 
	C667.760742,1012.755066 659.090759,1012.672485 650.484802,1012.325989 
	C648.428772,1012.243225 645.844421,1010.240967 644.580078,1008.386963 
	C640.942444,1003.053223 633.039978,1001.163025 627.797485,1005.100098 
	C626.819702,1005.834351 625.752625,1008.035278 626.154053,1008.709717 
	C627.172180,1010.420227 628.773560,1012.410706 630.543823,1012.938232 
	C638.264465,1015.238647 646.241150,1016.704285 653.909485,1019.148682 
	C661.959351,1021.714600 670.386841,1023.798584 676.545349,1030.317993 
	C683.732361,1037.926392 684.909485,1052.734497 679.231567,1062.068726 
	C672.389587,1073.316772 662.449524,1079.519897 649.411926,1080.902100 
	C643.393311,1081.540283 637.245911,1083.354126 631.390137,1082.661987 
	C617.295837,1080.995972 603.811951,1077.337524 595.091614,1064.445557 
	C591.629517,1059.327148 590.514038,1053.745728 591.227600,1047.838501 
	C591.392334,1046.475098 593.449585,1044.311157 594.692627,1044.270996 
	C604.014465,1043.969849 613.352966,1044.006104 622.679504,1044.224121 
	C624.034668,1044.255737 626.079712,1045.525635 626.557922,1046.721436 
	C628.187805,1050.797241 631.243347,1052.554932 635.581970,1053.460449 
M599.724365,1047.691040 
	C593.691406,1047.964233 593.309692,1048.482666 594.690430,1054.124756 
	C596.699707,1062.334717 601.223511,1069.004028 608.829956,1072.433594 
	C615.356995,1075.376587 622.474792,1077.707275 629.546570,1078.595215 
	C643.137146,1080.301758 656.283142,1078.622559 667.997375,1070.238647 
	C680.974304,1060.951050 683.112122,1037.529541 669.220337,1028.952271 
	C663.141602,1025.198975 655.866577,1023.227661 648.949402,1021.030945 
	C641.863037,1018.780518 634.432556,1017.601013 627.373657,1015.280457 
	C621.849854,1013.464539 620.388733,1007.390503 623.991699,1003.734009 
	C629.609131,998.033142 643.029968,999.528625 647.477417,1006.082825 
	C648.473694,1007.551147 650.755188,1008.890869 652.506470,1008.972595 
	C659.485657,1009.298462 666.491760,1008.984558 673.482422,1009.145691 
	C677.798096,1009.245239 678.754822,1007.160217 677.781677,1003.493713 
	C675.624939,995.367065 670.939880,988.679138 663.652283,984.921082 
	C644.550232,975.070557 625.080811,974.355042 606.278625,985.750610 
	C591.006897,995.006531 588.437378,1018.516296 604.365234,1027.854004 
	C609.282532,1030.736694 615.012024,1032.401733 620.545349,1034.025391 
	C628.324341,1036.308105 636.371521,1037.695801 644.108887,1040.095337 
	C650.978271,1042.225830 652.410767,1049.043335 647.431580,1053.668701 
	C641.774170,1058.924194 629.825378,1057.957886 625.538574,1051.506470 
	C623.597168,1048.584717 621.477051,1047.549561 618.165527,1047.644653 
	C612.341675,1047.812012 606.509460,1047.690063 599.724365,1047.691040 
z"/>
<path fill="#B6DAD2" opacity="1.000000" stroke="none" 
	d="
M401.167084,984.364258 
	C401.688568,977.399963 403.004761,976.140564 409.405701,976.123596 
	C416.402405,976.105103 423.413452,976.390625 430.390991,976.024109 
	C435.270996,975.767761 438.097412,977.227539 438.533173,982.325378 
	C438.600708,983.115662 439.044189,983.873840 439.496490,985.170410 
	C442.647064,982.966736 445.314240,980.349731 448.516144,979.042603 
	C453.015717,977.205627 457.864105,976.040955 462.672516,975.268799 
	C463.900024,975.071716 466.726501,977.369507 466.797546,978.634521 
	C467.289124,987.388123 467.369202,996.172302 467.324768,1004.945435 
	C467.301605,1009.514771 464.669312,1011.465576 460.098389,1010.934143 
	C458.455383,1010.743042 456.755707,1010.771729 455.106781,1010.941467 
	C443.860901,1012.099365 439.180054,1016.564331 438.933533,1027.087036 
	C438.594147,1041.572388 438.846222,1056.071533 438.832062,1070.564697 
	C438.823029,1079.821167 437.787292,1080.850708 428.572479,1080.852661 
	C421.908936,1080.854004 415.244324,1080.923340 408.582153,1080.826904 
	C402.987183,1080.746094 401.175232,1078.845825 401.172760,1073.278931 
	C401.159668,1043.792725 401.166656,1014.306458 401.167084,984.364258 
M435.123352,1039.504517 
	C435.134735,1035.506714 435.004150,1031.502197 435.188080,1027.512451 
	C435.536926,1019.943298 437.809540,1013.095032 445.448578,1010.157104 
	C449.515137,1008.593018 454.194855,1008.404541 458.632446,1008.100708 
	C461.590820,1007.898132 463.722992,1007.018555 463.796112,1003.993408 
	C463.981171,996.338989 464.003632,988.669983 463.656250,981.026550 
	C463.610901,980.028870 460.914978,978.228516 459.611847,978.365967 
	C452.864227,979.077393 447.679474,982.959656 442.924316,987.534424 
	C441.000519,989.385376 438.868958,991.020325 436.831879,992.753479 
	C436.263184,989.977173 435.209106,987.195068 435.242188,984.425964 
	C435.289124,980.496338 433.765869,978.987976 429.972992,979.048096 
	C423.478027,979.151001 416.980255,979.095398 410.483765,979.072449 
	C407.276154,979.061096 405.674408,980.247375 405.685364,983.812073 
	C405.777527,1013.796082 405.789093,1043.780762 405.670746,1073.764648 
	C405.656158,1077.462158 407.207855,1078.289429 410.464264,1078.213989 
	C416.957367,1078.063110 423.460754,1078.022949 429.951385,1078.218872 
	C433.825043,1078.335938 435.261932,1076.927734 435.190857,1072.984619 
	C434.995728,1062.160522 435.123596,1051.330444 435.123352,1039.504517 
z"/>
<path fill="#6CB5A5" opacity="1.000000" stroke="none" 
	d="
M924.682373,970.439331 
	C917.677795,964.402039 913.769287,957.585327 916.399780,948.342102 
	C918.459167,941.105591 925.377686,935.263123 932.944275,934.356506 
	C941.553650,933.324890 948.367920,936.566162 953.057068,943.595642 
	C957.124451,949.693054 956.579895,960.385437 951.795532,965.740906 
	C945.617432,972.656494 937.175476,977.002258 924.682373,970.439331 
M933.105652,938.328491 
	C923.364014,940.135254 918.839111,947.272339 920.791443,957.751648 
	C922.097717,964.763489 926.832397,968.994568 934.485474,969.989075 
	C940.298401,970.744446 947.827271,966.866150 949.915771,961.306396 
	C953.950378,950.565430 950.044189,936.948364 933.105652,938.328491 
z"/>
<path fill="#F5FAF9" opacity="1.000000" stroke="none" 
	d="
M778.052612,419.183899 
	C779.702271,407.387177 781.166870,396.005066 783.044250,384.691406 
	C783.445862,382.271301 784.819397,378.799683 786.652771,378.059052 
	C791.990662,375.902679 797.260742,377.742615 799.364380,381.491608 
	C807.494446,395.980621 815.574951,410.497467 823.669128,425.006622 
	C828.922485,434.423492 834.238525,443.806396 839.389038,453.279236 
	C842.367676,458.757385 842.071960,459.118317 835.592102,459.122070 
	C812.102844,459.135681 788.613586,459.128387 765.124329,459.128418 
	C703.819031,459.128479 642.513794,459.128204 581.208496,459.128082 
	C578.941772,459.128082 576.674988,459.128082 573.380066,459.128082 
	C574.564453,456.206970 575.143921,454.197876 576.136292,452.419159 
	C587.557739,431.947510 599.044861,411.512482 610.505920,391.062958 
	C612.129883,388.165375 613.779907,385.278809 615.288574,382.321198 
	C616.938843,379.085968 619.093689,377.387268 623.104919,377.534454 
	C631.104431,377.828003 631.064148,377.586548 632.188416,385.568665 
	C634.066956,398.906494 636.195190,412.212341 637.841614,425.578064 
	C638.452026,430.533691 640.783691,431.892517 645.414062,431.880737 
	C687.061340,431.774689 728.709473,431.737549 770.356201,431.927490 
	C775.303955,431.950043 777.456238,430.562958 777.225830,425.550690 
	C777.135742,423.591034 777.731689,421.599792 778.052612,419.183899 
z"/>
<path fill="#F8FCFB" opacity="1.000000" stroke="none" 
	d="
M670.000000,477.778259 
	C735.289856,477.779083 800.079712,477.784485 864.869568,477.772278 
	C869.798218,477.771362 874.738037,478.019165 877.977234,482.351105 
	C884.018738,490.430817 879.514160,500.719482 869.430237,502.100983 
	C867.463806,502.370392 865.440491,502.264526 863.443420,502.264679 
	C760.012817,502.271088 656.582214,502.270416 553.151611,502.268280 
	C551.319580,502.268250 549.485901,502.285492 547.655884,502.217346 
	C540.718750,501.959106 536.067200,497.677185 535.766724,491.312561 
	C535.435730,484.300995 540.163208,478.630951 547.087097,477.904785 
	C549.231506,477.679901 551.413208,477.783112 553.577881,477.782776 
	C592.218567,477.777008 630.859314,477.778473 670.000000,477.778259 
z"/>
<path fill="#F5FAF9" opacity="1.000000" stroke="none" 
	d="
M667.010620,377.324280 
	C697.332581,377.324280 727.156677,377.320770 756.980774,377.326111 
	C764.385925,377.327423 764.614746,377.386963 763.883362,384.485779 
	C763.031433,392.754120 761.709229,400.972992 760.729187,409.229736 
	C760.363892,412.307007 758.724854,413.591675 755.811646,413.643188 
	C754.645752,413.663788 753.479858,413.701904 752.313965,413.702026 
	C722.489868,413.705261 692.665771,413.710754 662.841675,413.700226 
	C654.999023,413.697479 654.838013,413.474640 653.922424,405.803772 
	C652.996521,398.046326 651.982178,390.298828 650.932190,382.557007 
	C650.389099,378.552612 652.179626,377.111176 656.017578,377.291107 
	C659.508789,377.454773 663.013794,377.324677 667.010620,377.324280 
z"/>
<path fill="#68B3A2" opacity="1.000000" stroke="none" 
	d="
M750.000000,779.005859 
	C704.174194,779.005371 658.848328,778.965576 613.522705,779.063416 
	C608.841064,779.073547 606.479980,778.147156 605.729553,772.674377 
	C602.873779,751.848816 599.301880,731.122131 596.073242,710.346741 
	C594.318726,699.057007 592.865845,687.718933 591.008545,676.446899 
	C588.585999,661.744751 585.747070,647.110840 583.366333,632.402344 
	C581.064636,618.181885 579.217102,603.888428 576.975647,589.657593 
	C575.663269,581.325867 573.904175,573.065491 572.469788,564.751648 
	C571.232849,557.582336 570.192261,550.379456 569.024780,543.197876 
	C568.175903,537.975769 567.339600,532.749451 566.355896,527.551880 
	C565.269592,521.811829 566.692627,519.945862 572.522156,519.945496 
	C662.673828,519.938904 752.825562,519.952881 842.977234,519.899475 
	C846.889771,519.897156 849.249268,520.039124 848.230591,525.320923 
	C846.166687,536.021912 844.814148,546.863098 843.276794,557.661865 
	C842.088501,566.009644 841.190125,574.399780 839.934448,582.736633 
	C838.629517,591.400757 836.984924,600.013123 835.607788,608.667053 
	C833.999634,618.772583 832.648193,628.920288 830.943542,639.008789 
	C829.625000,646.812256 827.796692,654.529175 826.448547,662.328369 
	C825.179321,669.671204 824.243713,677.071716 823.157898,684.446289 
	C821.374939,696.555664 819.653259,708.674561 817.787781,720.771240 
	C815.594238,734.995972 813.282959,749.202637 811.004944,763.414307 
	C810.351440,767.490967 809.461914,771.538208 809.001465,775.635010 
	C808.580017,779.385254 805.981018,778.997864 803.491760,778.999390 
	C785.827820,779.010193 768.163940,779.005554 750.000000,779.005859 
M822.160522,675.324280 
	C823.979248,663.178345 825.613708,651.001282 827.658264,638.893494 
	C831.000122,619.102295 834.737732,599.377747 838.066284,579.584412 
	C840.926392,562.576721 843.415100,545.506836 846.143616,528.476562 
	C846.800232,524.378418 845.933472,522.493164 841.120667,522.499939 
	C752.121704,522.625305 663.122498,522.590149 574.123352,522.615784 
	C572.409912,522.616272 570.696655,522.940125 568.680908,523.143616 
	C571.253967,538.832947 573.768860,553.845337 576.159058,568.877502 
	C577.355896,576.404236 578.186279,583.990051 579.427673,591.508667 
	C581.801331,605.885254 584.435547,620.218750 586.802429,634.596375 
	C589.144287,648.822083 591.225220,663.090698 593.539368,677.321106 
	C595.828369,691.397095 598.343201,705.436401 600.618408,719.514587 
	C603.371887,736.552246 606.106750,753.595337 608.557068,770.678040 
	C609.170410,774.954285 611.088379,776.220337 615.120667,776.215881 
	C676.786682,776.147644 738.452759,776.149170 800.118774,776.215393 
	C803.930237,776.219482 805.930847,774.956787 806.572815,771.021606 
	C808.655945,758.252563 811.090210,745.540649 813.161987,732.769897 
	C816.218445,713.929504 819.079590,695.057434 822.160522,675.324280 
z"/>
<path fill="#F5FAF9" opacity="1.000000" stroke="none" 
	d="
M507.433044,1046.538086 
	C497.829926,1035.110352 501.067413,1016.294128 508.757874,1009.657471 
	C520.898621,999.180359 539.092957,1003.497070 543.899048,1018.895691 
	C546.180481,1026.205688 546.517883,1033.991333 542.486389,1041.205322 
	C535.105957,1054.411987 522.477173,1057.310425 510.059265,1048.620972 
	C509.242615,1048.049438 508.476471,1047.405762 507.433044,1046.538086 
z"/>
<path fill="#D5EE0A" opacity="1.000000" stroke="none" 
	d="
M613.840332,275.561096 
	C622.141052,280.176300 626.516968,286.468262 625.346619,296.054138 
	C624.377991,303.987213 619.545776,308.500214 612.714111,311.298920 
	C610.654053,312.142822 608.194519,312.283447 605.917419,312.285767 
	C554.257324,312.338074 502.597137,312.323792 450.936981,312.329407 
	C443.344055,312.330231 443.160461,312.524811 443.159729,320.296722 
	C443.154999,371.123657 443.175385,421.950653 443.134949,472.777557 
	C443.127716,481.881409 440.140533,489.497894 431.291534,493.548615 
	C419.129822,499.115662 405.760956,490.734253 404.764130,477.023804 
	C404.691711,476.028351 404.719208,475.024841 404.719177,474.025055 
	C404.716217,414.199249 404.749359,354.373413 404.672943,294.547699 
	C404.662872,286.654968 407.668732,280.547241 414.533630,276.834991 
	C417.151337,275.419464 420.515594,274.852417 423.548462,274.823364 
	C442.710999,274.639709 461.876007,274.709320 481.040222,274.707428 
	C521.535156,274.703369 562.030029,274.688019 602.524902,274.739105 
	C606.166260,274.743713 609.807068,275.197449 613.840332,275.561096 
z"/>
<path fill="#D5EE09" opacity="1.000000" stroke="none" 
	d="
M975.822144,820.999817 
	C975.823975,773.519226 976.041199,726.536865 975.677429,679.559021 
	C975.586060,667.758606 983.918213,660.310608 994.115723,659.227417 
	C1003.488708,658.231689 1013.471985,668.168884 1013.455994,675.748962 
	C1013.322876,738.722717 1013.410583,801.696899 1013.346680,864.670898 
	C1013.338501,872.736084 1005.598328,880.301208 997.539062,880.307312 
	C941.895325,880.349548 886.251526,880.346558 830.607788,880.310120 
	C822.602478,880.304932 815.505310,872.714355 814.575378,864.773315 
	C813.006653,851.376953 823.538574,842.806396 837.342224,842.871765 
	C877.658081,843.062744 917.975403,842.939209 958.292175,842.937134 
	C962.457092,842.936951 966.625244,842.821289 970.785950,842.950012 
	C974.332886,843.059753 975.981079,841.740601 975.853271,837.991394 
	C975.666016,832.500183 975.816101,826.997559 975.822144,820.999817 
z"/>
<path fill="#1D8E74" opacity="1.000000" stroke="none" 
	d="
M726.159668,964.001465 
	C726.819763,973.785767 724.720703,983.283752 727.935974,993.909912 
	C732.305908,990.447571 735.630371,987.671936 739.099854,985.091248 
	C749.822632,977.115356 761.826721,978.311279 773.310974,981.887756 
	C787.511780,986.310242 793.275391,998.252380 794.958435,1011.943115 
	C796.148987,1021.627625 795.914246,1031.501587 796.070190,1041.295044 
	C796.234497,1051.619751 795.975708,1061.951660 796.178711,1072.275024 
	C796.249390,1075.868652 795.362122,1077.416870 791.473877,1077.215820 
	C785.825562,1076.923950 780.140686,1076.933350 774.491211,1077.213257 
	C770.654480,1077.403442 769.702881,1075.934448 769.741699,1072.299194 
	C769.910583,1056.476807 769.901917,1040.650879 769.779724,1024.827759 
	C769.711182,1015.952637 766.395447,1008.633545 758.362915,1004.107666 
	C752.153687,1000.609070 745.193420,1001.037170 739.084351,1003.111328 
	C731.200195,1005.788086 726.461792,1012.410767 726.282776,1020.928040 
	C725.925842,1037.910889 726.039612,1054.907715 726.249756,1071.895142 
	C726.301208,1076.060059 725.068726,1077.433838 720.905457,1077.224976 
	C714.591614,1076.908081 708.247925,1077.035767 701.921692,1077.182617 
	C698.926208,1077.252075 697.841003,1076.221313 697.847046,1073.148560 
	C697.923706,1033.838135 697.849060,994.527527 697.942688,955.217285 
	C697.960815,947.602844 698.882324,946.941345 706.233093,946.938049 
	C711.396790,946.935791 716.570129,947.131348 721.720764,946.872070 
	C725.326172,946.690552 726.400757,948.109741 726.210388,951.511292 
	C725.987366,955.496521 726.158997,959.503906 726.159668,964.001465 
z"/>
<path fill="#54A996" opacity="1.000000" stroke="none" 
	d="
M1055.120850,1080.849365 
	C1055.209961,1077.751099 1055.872070,1074.732544 1054.939087,1072.334595 
	C1044.329834,1045.067627 1033.498291,1017.886963 1022.648560,990.714233 
	C1021.803223,988.597046 1020.375793,986.712280 1017.941833,984.850708 
	C1017.941833,989.164124 1017.731262,993.490662 1018.000610,997.787231 
	C1018.273682,1002.143066 1016.350830,1003.769348 1012.207703,1003.914185 
	C1005.162964,1004.160400 1005.153442,1004.270813 1005.151001,1011.404236 
	C1005.144104,1031.897705 1005.022583,1052.392456 1005.244202,1072.883545 
	C1005.295349,1077.608276 1003.488525,1079.070435 999.115356,1078.949951 
	C992.788879,1078.775635 986.448914,1078.751831 980.124390,1078.959717 
	C975.601257,1079.108154 973.930237,1077.308838 973.962646,1072.766357 
	C974.111206,1051.940796 973.950989,1031.113037 974.093201,1010.287292 
	C974.121338,1006.164185 973.540710,1003.573242 968.534729,1003.594177 
	C967.334961,1003.599182 965.208679,1001.000000 965.084167,999.470276 
	C964.653015,994.173706 965.005432,988.818481 964.881592,983.489746 
	C964.809631,980.397522 965.886841,978.761719 969.175415,978.858887 
	C972.847900,978.967346 973.883179,976.830872 974.105530,973.449524 
	C974.387451,969.163330 974.817627,964.800049 975.932739,960.672241 
	C979.016602,949.256348 986.271484,941.978027 998.173340,939.887512 
	C1002.727661,939.087585 1007.305237,938.383057 1011.896484,937.841248 
	C1015.406860,937.427002 1017.098511,938.992859 1016.941040,942.757019 
	C1016.732300,947.746704 1016.839172,952.752319 1016.906921,957.749817 
	C1016.955872,961.359741 1015.724487,963.869873 1011.865906,964.585266 
	C1007.850098,965.329834 1006.127747,968.023804 1005.526062,971.887024 
	C1004.754272,976.842651 1006.108276,978.800110 1011.185608,978.838257 
	C1023.512512,978.930969 1035.841309,978.945862 1048.167603,978.828308 
	C1051.612183,978.795471 1053.310669,979.747620 1054.507568,983.401184 
	C1060.299927,1001.083191 1066.544556,1018.617249 1072.649048,1036.196777 
	C1073.068726,1037.405273 1073.652588,1038.556885 1074.706055,1041.002319 
	C1076.269775,1038.664673 1077.573730,1037.314331 1078.190674,1035.701050 
	C1084.842896,1018.307678 1091.478149,1000.906372 1097.882080,983.420776 
	C1099.127808,980.019226 1100.904419,978.724792 1104.451050,978.817749 
	C1111.776978,979.009827 1119.111938,978.925720 1126.442383,978.860596 
	C1130.422974,978.825195 1131.397095,980.019226 1129.669922,983.967224 
	C1116.815552,1013.350220 1104.147827,1042.814819 1091.413208,1072.250244 
	C1084.283691,1088.729980 1077.066406,1105.172363 1070.066040,1121.706787 
	C1068.790771,1124.718994 1067.232544,1126.247437 1063.828125,1126.170776 
	C1056.334351,1126.002197 1048.833496,1126.172729 1041.336792,1126.096558 
	C1036.616577,1126.048584 1036.153564,1125.109985 1038.073486,1120.649902 
	C1043.726562,1107.517212 1049.330078,1094.363037 1055.120850,1080.849365 
M1111.563232,980.906250 
	C1109.231201,980.910828 1106.830688,980.579041 1104.590332,981.034485 
	C1103.011841,981.355347 1100.830322,982.421936 1100.321777,983.709778 
	C1096.027222,994.587158 1092.001709,1005.572449 1088.005493,1016.565369 
	C1085.176514,1024.348022 1082.692627,1032.261719 1079.646118,1039.955078 
	C1078.987549,1041.617920 1076.602295,1043.530640 1074.969482,1043.570435 
	C1073.720337,1043.601074 1071.878174,1041.060303 1071.211914,1039.315063 
	C1068.863037,1033.161865 1066.954834,1026.842041 1064.792114,1020.615784 
	C1060.603149,1008.557007 1056.185059,996.573975 1052.254150,984.432495 
	C1051.302979,981.494751 1049.896362,980.866394 1047.294922,980.888123 
	C1039.965942,980.949219 1032.635864,980.882812 1025.306885,980.942078 
	C1024.257202,980.950562 1023.210938,981.375488 1021.788879,981.690552 
	C1026.599121,994.052429 1031.150146,1006.019531 1035.905396,1017.904785 
	C1043.078003,1035.831543 1050.493530,1053.661865 1057.535156,1071.639160 
	C1058.544678,1074.216309 1059.040039,1077.784546 1058.070557,1080.214844 
	C1053.050415,1092.798340 1047.462036,1105.154785 1042.113037,1117.608154 
	C1041.304321,1119.490845 1040.712769,1121.466797 1039.783936,1124.061401 
	C1048.379395,1124.061401 1056.025024,1124.247314 1063.645874,1123.897095 
	C1065.089600,1123.830933 1066.916382,1121.894653 1067.732178,1120.373779 
	C1069.824707,1116.472656 1071.497314,1112.341064 1073.249634,1108.263672 
	C1078.595825,1095.822876 1083.862183,1083.347656 1089.236450,1070.919189 
	C1092.237305,1063.979492 1095.432861,1057.124268 1098.463745,1050.197388 
	C1101.579712,1043.076294 1104.603271,1035.914673 1107.664673,1028.769653 
	C1110.121338,1023.036133 1112.558105,1017.294006 1115.032104,1011.567932 
	C1118.896118,1002.624329 1122.824219,993.708069 1126.635864,984.742188 
	C1127.644653,982.369080 1126.909668,980.871887 1124.035034,980.903564 
	C1120.204224,980.945740 1116.372559,980.908936 1111.563232,980.906250 
M995.489929,942.701111 
	C992.745178,944.186035 989.672058,945.274719 987.315308,947.227783 
	C979.160461,953.985962 976.279114,963.068115 976.960449,973.373779 
	C977.261108,977.921997 975.263428,980.232300 970.937317,980.909790 
	C970.010315,981.054932 969.109558,981.367493 967.924377,981.673157 
	C967.924377,987.384338 967.732788,992.872803 968.066284,998.329224 
	C968.144531,999.609680 969.981201,1001.811096 971.038025,1001.828613 
	C976.129272,1001.912964 976.996826,1004.683655 976.972107,1009.001770 
	C976.852417,1029.987793 976.997314,1050.975586 976.845703,1071.961182 
	C976.818481,1075.737427 977.648315,1077.428955 981.804199,1077.133667 
	C986.775940,1076.780518 991.806885,1076.812256 996.784058,1077.124878 
	C1000.859924,1077.380981 1002.231689,1076.136963 1002.187500,1071.880249 
	C1001.976440,1051.562012 1002.090576,1031.240234 1002.093994,1010.919800 
	C1002.095215,1003.365417 1003.000427,1002.300659 1010.606628,1002.087097 
	C1013.755127,1001.998718 1015.202698,1000.934875 1015.099609,997.679321 
	C1014.967896,993.519592 1014.910645,989.343445 1015.133057,985.191040 
	C1015.306641,981.949097 1014.192749,980.656067 1010.880188,980.859985 
	C1007.109680,981.092041 1003.271729,980.799622 1002.180176,976.158813 
	C1001.135315,971.716309 1003.935669,965.742981 1007.821716,964.001831 
	C1011.510620,962.348938 1013.694336,960.154663 1013.190918,955.662415 
	C1012.766907,951.878906 1012.891846,947.995483 1013.161377,944.183655 
	C1013.428284,940.408508 1011.625977,939.401794 1008.396973,939.965088 
	C1004.322449,940.675781 1000.275940,941.547485 995.489929,942.701111 
z"/>
<path fill="#259279" opacity="1.000000" stroke="none" 
	d="
M600.202576,1047.690186 
	C606.509460,1047.690063 612.341675,1047.812012 618.165527,1047.644653 
	C621.477051,1047.549561 623.597168,1048.584717 625.538574,1051.506470 
	C629.825378,1057.957886 641.774170,1058.924194 647.431580,1053.668701 
	C652.410767,1049.043335 650.978271,1042.225830 644.108887,1040.095337 
	C636.371521,1037.695801 628.324341,1036.308105 620.545349,1034.025391 
	C615.012024,1032.401733 609.282532,1030.736694 604.365234,1027.854004 
	C588.437378,1018.516296 591.006897,995.006531 606.278625,985.750610 
	C625.080811,974.355042 644.550232,975.070557 663.652283,984.921082 
	C670.939880,988.679138 675.624939,995.367065 677.781677,1003.493713 
	C678.754822,1007.160217 677.798096,1009.245239 673.482422,1009.145691 
	C666.491760,1008.984558 659.485657,1009.298462 652.506470,1008.972595 
	C650.755188,1008.890869 648.473694,1007.551147 647.477417,1006.082825 
	C643.029968,999.528625 629.609131,998.033142 623.991699,1003.734009 
	C620.388733,1007.390503 621.849854,1013.464539 627.373657,1015.280457 
	C634.432556,1017.601013 641.863037,1018.780518 648.949402,1021.030945 
	C655.866577,1023.227661 663.141602,1025.198975 669.220337,1028.952271 
	C683.112122,1037.529541 680.974304,1060.951050 667.997375,1070.238647 
	C656.283142,1078.622559 643.137146,1080.301758 629.546570,1078.595215 
	C622.474792,1077.707275 615.356995,1075.376587 608.829956,1072.433594 
	C601.223511,1069.004028 596.699707,1062.334717 594.690430,1054.124756 
	C593.309692,1048.482666 593.691406,1047.964233 600.202576,1047.690186 
z"/>
<path fill="#259279" opacity="1.000000" stroke="none" 
	d="
M435.123474,1040.003662 
	C435.123596,1051.330444 434.995728,1062.160522 435.190857,1072.984619 
	C435.261932,1076.927734 433.825043,1078.335938 429.951385,1078.218872 
	C423.460754,1078.022949 416.957367,1078.063110 410.464264,1078.213989 
	C407.207855,1078.289429 405.656158,1077.462158 405.670746,1073.764648 
	C405.789093,1043.780762 405.777527,1013.796082 405.685364,983.812073 
	C405.674408,980.247375 407.276154,979.061096 410.483765,979.072449 
	C416.980255,979.095398 423.478027,979.151001 429.972992,979.048096 
	C433.765869,978.987976 435.289124,980.496338 435.242188,984.425964 
	C435.209106,987.195068 436.263184,989.977173 436.831909,992.753540 
	C438.868958,991.020325 441.000519,989.385376 442.924316,987.534424 
	C447.679474,982.959656 452.864227,979.077393 459.611847,978.365967 
	C460.914978,978.228516 463.610901,980.028870 463.656250,981.026550 
	C464.003632,988.669983 463.981171,996.338989 463.796112,1003.993408 
	C463.722992,1007.018555 461.590820,1007.898132 458.632446,1008.100708 
	C454.194855,1008.404541 449.515137,1008.593018 445.448578,1010.157104 
	C437.809540,1013.095032 435.536926,1019.943298 435.188080,1027.512451 
	C435.004150,1031.502197 435.134735,1035.506714 435.123474,1040.003662 
z"/>
<path fill="#1D8E74" opacity="1.000000" stroke="none" 
	d="
M933.505859,938.201050 
	C950.044189,936.948364 953.950378,950.565430 949.915771,961.306396 
	C947.827271,966.866150 940.298401,970.744446 934.485474,969.989075 
	C926.832397,968.994568 922.097717,964.763489 920.791443,957.751648 
	C918.839111,947.272339 923.364014,940.135254 933.505859,938.201050 
z"/>
<path fill="#FCFDFC" opacity="1.000000" stroke="none" 
	d="
M822.092224,675.761597 
	C819.079590,695.057434 816.218445,713.929504 813.161987,732.769897 
	C811.090210,745.540649 808.655945,758.252563 806.572815,771.021606 
	C805.930847,774.956787 803.930237,776.219482 800.118774,776.215393 
	C738.452759,776.149170 676.786682,776.147644 615.120667,776.215881 
	C611.088379,776.220337 609.170410,774.954285 608.557068,770.678040 
	C606.106750,753.595337 603.371887,736.552246 600.618408,719.514587 
	C598.343201,705.436401 595.828369,691.397095 593.539368,677.321106 
	C591.225220,663.090698 589.144287,648.822083 586.802429,634.596375 
	C584.435547,620.218750 581.801331,605.885254 579.427673,591.508667 
	C578.186279,583.990051 577.355896,576.404236 576.159058,568.877502 
	C573.768860,553.845337 571.253967,538.832947 568.680908,523.143616 
	C570.696655,522.940125 572.409912,522.616272 574.123352,522.615784 
	C663.122498,522.590149 752.121704,522.625305 841.120667,522.499939 
	C845.933472,522.493164 846.800232,524.378418 846.143616,528.476562 
	C843.415100,545.506836 840.926392,562.576721 838.066284,579.584412 
	C834.737732,599.377747 831.000122,619.102295 827.658264,638.893494 
	C825.613708,651.001282 823.979248,663.178345 822.092224,675.761597 
M710.816833,671.643372 
	C710.816833,671.643372 711.179932,671.761719 711.193970,672.572266 
	C715.316345,672.890808 719.444519,673.508057 723.559143,673.428467 
	C726.565491,673.370300 728.062378,671.511108 727.969360,668.104858 
	C727.742676,659.798584 727.699707,651.475281 727.987000,643.172729 
	C728.113342,639.522583 726.535095,637.576782 723.361328,637.509705 
	C718.658630,637.410400 713.940796,638.024231 709.229675,638.338623 
	C708.308777,638.400024 707.371765,638.629395 706.471863,638.525146 
	C702.953613,638.117554 699.459412,637.440002 695.932983,637.183472 
	C692.636719,636.943665 691.101196,638.829102 691.105713,642.083374 
	C691.118103,651.060608 691.113647,660.037903 691.098511,669.015137 
	C691.092957,672.325867 692.783508,674.162292 696.012512,673.796692 
	C700.854858,673.248352 705.649963,672.282776 710.816833,671.643372 
M770.002380,681.388489 
	C767.880127,681.628418 765.759094,682.063782 763.635498,682.076172 
	C751.491760,682.146851 739.347046,682.167114 727.203552,682.085693 
	C724.196472,682.065491 721.949768,682.580566 720.145264,685.475891 
	C718.428650,688.230347 715.925659,690.577087 713.469727,692.768372 
	C710.094788,695.779663 706.438599,698.475769 702.230530,701.845337 
	C708.678284,707.801514 714.133606,713.267090 720.084290,718.126099 
	C722.431274,720.042603 725.851929,721.525513 728.836609,721.625427 
	C740.967651,722.031555 753.119507,721.786316 765.263062,721.869934 
	C768.380066,721.891357 771.560547,722.735718 774.597717,722.335754 
	C782.374451,721.311462 786.983093,716.401489 790.288757,709.421509 
	C794.862122,699.764404 800.358398,690.544800 804.947998,680.894470 
	C805.852539,678.992432 804.437439,675.987183 803.788635,672.739136 
	C803.059998,670.714355 802.591553,668.545105 801.560547,666.688110 
	C794.704468,654.340332 787.600159,642.128601 780.876892,629.710083 
	C779.094543,626.417908 777.109680,626.359497 774.477661,627.867371 
	C766.558289,632.404175 758.708618,637.062500 750.808289,641.632751 
	C747.898499,643.316040 746.805298,645.267334 748.763672,648.530640 
	C754.484741,658.063599 759.934204,667.761169 765.759949,677.228210 
	C766.743958,678.827209 769.067383,679.601868 770.002380,681.388489 
M709.669067,592.592346 
	C711.557251,594.867310 713.776917,596.944580 715.273132,599.453369 
	C720.374207,608.007019 725.192078,616.729248 730.205750,625.335999 
	C730.736206,626.246582 731.729065,627.167542 732.704529,627.493408 
	C738.673462,629.487488 744.651245,631.488586 750.721741,633.134521 
	C755.430054,634.411072 757.400269,632.791443 758.536499,628.048218 
	C759.807617,622.741821 761.478088,617.530884 762.741638,612.222900 
	C763.088074,610.767578 763.098877,608.840515 762.417053,607.592529 
	C755.092163,594.185608 747.619507,580.859070 740.136169,567.539307 
	C737.843201,563.458130 734.623901,560.474731 730.173950,559.222839 
	C728.489563,558.691956 726.810364,557.721497 725.119873,557.701294 
	C713.798767,557.566223 702.474731,557.590881 691.153015,557.700562 
	C690.015869,557.711548 688.784790,558.484680 687.779358,559.170776 
	C686.321838,560.165466 685.049438,561.427490 683.662476,562.530762 
	C682.260620,563.645874 680.311096,564.408691 679.467468,565.837158 
	C671.554810,579.235779 663.973022,592.831360 655.957458,606.166687 
	C653.616150,610.061829 655.168274,611.964905 658.200134,613.715088 
	C665.811584,618.108765 673.440613,622.474731 681.132385,626.725464 
	C686.243713,629.550232 687.225891,629.088562 690.141968,624.086853 
	C696.404236,613.345764 702.781067,602.671387 709.669067,592.592346 
M627.099365,651.559814 
	C623.811829,657.301819 620.621155,663.102051 617.213745,668.772095 
	C612.210999,677.096924 611.130859,685.468933 616.216858,694.173462 
	C620.153931,700.911865 623.645264,707.942261 628.002319,714.391846 
	C630.560059,718.177795 631.397766,724.692810 638.564575,723.417847 
	C639.000488,723.340271 639.540833,724.304321 640.130005,724.551208 
	C642.177612,725.409058 644.260010,726.827454 646.343750,726.853333 
	C662.163940,727.049622 677.988403,726.881714 693.809631,727.029419 
	C697.680847,727.065552 699.160400,725.763794 699.075867,721.819824 
	C698.865417,711.997253 698.693787,702.157654 699.059448,692.345520 
	C699.254822,687.102661 697.273193,685.794678 692.398743,685.925354 
	C681.247253,686.223999 670.082825,686.022522 658.923950,686.078186 
	C655.820312,686.093628 653.648438,685.419434 655.714844,681.817444 
	C661.311218,672.061768 667.144714,662.439758 672.589355,652.601562 
	C673.577698,650.815918 673.738953,648.133911 673.293762,646.079834 
	C672.177307,640.928345 670.314514,635.942810 669.083313,630.810974 
	C667.425354,623.900146 664.654663,622.383850 657.756836,624.737061 
	C652.810364,626.424438 647.644409,627.523682 642.815552,629.476685 
	C640.425781,630.443237 637.996399,632.367004 636.596558,634.516602 
	C633.183777,639.756714 630.361267,645.381348 627.099365,651.559814 
z"/>
<path fill="#1C8D74" opacity="1.000000" stroke="none" 
	d="
M1112.052246,980.906128 
	C1116.372559,980.908936 1120.204224,980.945740 1124.035034,980.903564 
	C1126.909668,980.871887 1127.644653,982.369080 1126.635864,984.742188 
	C1122.824219,993.708069 1118.896118,1002.624329 1115.032104,1011.567932 
	C1112.558105,1017.294006 1110.121338,1023.036133 1107.664673,1028.769653 
	C1104.603271,1035.914673 1101.579712,1043.076294 1098.463745,1050.197388 
	C1095.432861,1057.124268 1092.237305,1063.979492 1089.236450,1070.919189 
	C1083.862183,1083.347656 1078.595825,1095.822876 1073.249634,1108.263672 
	C1071.497314,1112.341064 1069.824707,1116.472656 1067.732178,1120.373779 
	C1066.916382,1121.894653 1065.089600,1123.830933 1063.645874,1123.897095 
	C1056.025024,1124.247314 1048.379395,1124.061401 1039.783936,1124.061401 
	C1040.712769,1121.466797 1041.304321,1119.490845 1042.113037,1117.608154 
	C1047.462036,1105.154785 1053.050415,1092.798340 1058.070557,1080.214844 
	C1059.040039,1077.784546 1058.544678,1074.216309 1057.535156,1071.639160 
	C1050.493530,1053.661865 1043.078003,1035.831543 1035.905396,1017.904785 
	C1031.150146,1006.019531 1026.599121,994.052429 1021.788879,981.690552 
	C1023.210938,981.375488 1024.257202,980.950562 1025.306885,980.942078 
	C1032.635864,980.882812 1039.965942,980.949219 1047.294922,980.888123 
	C1049.896362,980.866394 1051.302979,981.494751 1052.254150,984.432495 
	C1056.185059,996.573975 1060.603149,1008.557007 1064.792114,1020.615784 
	C1066.954834,1026.842041 1068.863037,1033.161865 1071.211914,1039.315063 
	C1071.878174,1041.060303 1073.720337,1043.601074 1074.969482,1043.570435 
	C1076.602295,1043.530640 1078.987549,1041.617920 1079.646118,1039.955078 
	C1082.692627,1032.261719 1085.176514,1024.348022 1088.005493,1016.565369 
	C1092.001709,1005.572449 1096.027222,994.587158 1100.321777,983.709778 
	C1100.830322,982.421936 1103.011841,981.355347 1104.590332,981.034485 
	C1106.830688,980.579041 1109.231201,980.910828 1112.052246,980.906128 
z"/>
<path fill="#1C8D74" opacity="1.000000" stroke="none" 
	d="
M995.853638,942.525452 
	C1000.275940,941.547485 1004.322449,940.675781 1008.396973,939.965088 
	C1011.625977,939.401794 1013.428284,940.408508 1013.161377,944.183655 
	C1012.891846,947.995483 1012.766907,951.878906 1013.190918,955.662415 
	C1013.694336,960.154663 1011.510620,962.348938 1007.821716,964.001831 
	C1003.935669,965.742981 1001.135315,971.716309 1002.180176,976.158813 
	C1003.271729,980.799622 1007.109680,981.092041 1010.880188,980.859985 
	C1014.192749,980.656067 1015.306641,981.949097 1015.133057,985.191040 
	C1014.910645,989.343445 1014.967896,993.519592 1015.099609,997.679321 
	C1015.202698,1000.934875 1013.755127,1001.998718 1010.606628,1002.087097 
	C1003.000427,1002.300659 1002.095215,1003.365417 1002.093994,1010.919800 
	C1002.090576,1031.240234 1001.976440,1051.562012 1002.187500,1071.880249 
	C1002.231689,1076.136963 1000.859924,1077.380981 996.784058,1077.124878 
	C991.806885,1076.812256 986.775940,1076.780518 981.804199,1077.133667 
	C977.648315,1077.428955 976.818481,1075.737427 976.845703,1071.961182 
	C976.997314,1050.975586 976.852417,1029.987793 976.972107,1009.001770 
	C976.996826,1004.683655 976.129272,1001.912964 971.038025,1001.828613 
	C969.981201,1001.811096 968.144531,999.609680 968.066284,998.329224 
	C967.732788,992.872803 967.924377,987.384338 967.924377,981.673157 
	C969.109558,981.367493 970.010315,981.054932 970.937317,980.909790 
	C975.263428,980.232300 977.261108,977.921997 976.960449,973.373779 
	C976.279114,963.068115 979.160461,953.985962 987.315308,947.227783 
	C989.672058,945.274719 992.745178,944.186035 995.853638,942.525452 
z"/>
<path fill="#D6EF13" opacity="1.000000" stroke="none" 
	d="
M729.803040,559.646667 
	C734.623901,560.474731 737.843201,563.458130 740.136169,567.539307 
	C747.619507,580.859070 755.092163,594.185608 762.417053,607.592529 
	C763.098877,608.840515 763.088074,610.767578 762.741638,612.222900 
	C761.478088,617.530884 759.807617,622.741821 758.536499,628.048218 
	C757.400269,632.791443 755.430054,634.411072 750.721741,633.134521 
	C744.651245,631.488586 738.673462,629.487488 732.704529,627.493408 
	C731.729065,627.167542 730.736206,626.246582 730.205750,625.335999 
	C725.192078,616.729248 720.374207,608.007019 715.273132,599.453369 
	C713.776917,596.944580 711.557251,594.867310 709.362671,592.110840 
	C702.983521,580.896484 696.910889,570.163757 690.515930,558.861389 
	C698.376770,558.861389 706.150696,558.765625 713.920959,558.894653 
	C719.217651,558.982605 724.509216,559.384888 729.803040,559.646667 
z"/>
<path fill="#28937B" opacity="1.000000" stroke="none" 
	d="
M770.771973,680.757324 
	C769.067383,679.601868 766.743958,678.827209 765.759949,677.228210 
	C759.934204,667.761169 754.484741,658.063599 748.763672,648.530640 
	C746.805298,645.267334 747.898499,643.316040 750.808289,641.632751 
	C758.708618,637.062500 766.558289,632.404175 774.477661,627.867371 
	C777.109680,626.359497 779.094543,626.417908 780.876892,629.710083 
	C787.600159,642.128601 794.704468,654.340332 801.560547,666.688110 
	C802.591553,668.545105 803.059998,670.714355 803.796387,673.403809 
	C803.011536,679.553101 799.014160,680.707336 794.439209,680.763123 
	C786.551331,680.859253 778.661194,680.769226 770.771973,680.757324 
z"/>
<path fill="#D0E8AD" opacity="1.000000" stroke="none" 
	d="
M627.200256,651.205444 
	C630.361267,645.381348 633.183777,639.756714 636.596558,634.516602 
	C637.996399,632.367004 640.425781,630.443237 642.815552,629.476685 
	C647.644409,627.523682 652.810364,626.424438 657.756836,624.737061 
	C664.654663,622.383850 667.425354,623.900146 669.083313,630.810974 
	C670.314514,635.942810 672.177307,640.928345 673.293762,646.079834 
	C673.738953,648.133911 673.577698,650.815918 672.589355,652.601562 
	C667.144714,662.439758 661.311218,672.061768 655.714844,681.817444 
	C653.648438,685.419434 655.820312,686.093628 658.923950,686.078186 
	C670.082825,686.022522 681.247253,686.223999 692.398743,685.925354 
	C697.273193,685.794678 699.254822,687.102661 699.059448,692.345520 
	C698.693787,702.157654 698.865417,711.997253 699.075867,721.819824 
	C699.160400,725.763794 697.680847,727.065552 693.809631,727.029419 
	C677.988403,726.881714 662.163940,727.049622 646.343750,726.853333 
	C644.260010,726.827454 642.177612,725.409058 640.130005,724.551208 
	C639.540833,724.304321 639.000488,723.340271 638.564575,723.417847 
	C631.397766,724.692810 630.560059,718.177795 628.002319,714.391846 
	C623.645264,707.942261 620.153931,700.911865 616.216858,694.173462 
	C611.130859,685.468933 612.210999,677.096924 617.213745,668.772095 
	C620.621155,663.102051 623.811829,657.301819 627.200256,651.205444 
M657.677185,673.121033 
	C659.397156,670.275330 661.326477,667.533325 662.795776,664.563599 
	C666.455872,657.166077 672.690247,650.472900 669.204102,641.033752 
	C668.067566,637.956543 667.716248,634.598206 666.749878,631.446960 
	C665.706177,628.043518 663.849487,626.000793 659.700989,627.366028 
	C654.848999,628.962830 649.727722,629.787781 644.963806,631.585144 
	C642.708496,632.436035 640.401001,634.407837 639.165466,636.492920 
	C632.301697,648.077026 625.770691,659.858032 619.102966,671.558655 
	C616.000549,677.002747 614.161743,682.736755 617.236633,688.654602 
	C621.515869,696.890137 626.213745,704.909790 630.803955,712.981140 
	C632.372131,715.738647 633.989014,716.176697 635.756836,712.938843 
	C642.900085,699.855652 650.136230,686.823181 657.677185,673.121033 
M681.726318,688.072998 
	C674.096802,688.353943 666.445251,688.387695 658.851318,689.066528 
	C656.572815,689.270203 653.593506,690.720032 652.419556,692.550842 
	C648.309692,698.960388 644.659485,705.689270 641.191406,712.479065 
	C637.549438,719.609070 640.614075,724.785400 648.676941,724.905579 
	C663.468750,725.126099 678.266296,724.933472 693.060974,725.006592 
	C696.159119,725.021851 697.133850,723.660156 696.958130,720.730286 
	C696.571228,714.275635 696.172363,707.812500 696.110962,701.349609 
	C695.983521,687.932678 696.072571,687.931824 681.726318,688.072998 
z"/>
<path fill="#E3F280" opacity="1.000000" stroke="none" 
	d="
M770.387207,681.072876 
	C778.661194,680.769226 786.551331,680.859253 794.439209,680.763123 
	C799.014160,680.707336 803.011536,679.553101 803.948181,673.779541 
	C804.437439,675.987183 805.852539,678.992432 804.947998,680.894470 
	C800.358398,690.544800 794.862122,699.764404 790.288757,709.421509 
	C786.983093,716.401489 782.374451,721.311462 774.597717,722.335754 
	C771.560547,722.735718 768.380066,721.891357 765.263062,721.869934 
	C753.119507,721.786316 740.967651,722.031555 728.836609,721.625427 
	C725.851929,721.525513 722.431274,720.042603 720.084290,718.126099 
	C714.133606,713.267090 708.678284,707.801514 702.230530,701.845337 
	C706.438599,698.475769 710.094788,695.779663 713.469727,692.768372 
	C715.925659,690.577087 718.428650,688.230347 720.145264,685.475891 
	C721.949768,682.580566 724.196472,682.065491 727.203552,682.085693 
	C739.347046,682.167114 751.491760,682.146851 763.635498,682.076172 
	C765.759094,682.063782 767.880127,681.628418 770.387207,681.072876 
M710.466675,705.164612 
	C714.346069,708.710083 718.035522,712.501831 722.182678,715.700134 
	C724.346802,717.369141 727.295471,718.879517 729.925903,718.941895 
	C743.894714,719.273132 757.876343,719.017151 771.850830,719.186584 
	C778.237061,719.263977 782.573181,716.346130 785.614136,711.046387 
	C789.735718,703.863098 793.841614,696.670349 797.886353,689.443726 
	C798.383240,688.555969 798.462769,687.434570 798.881470,685.880371 
	C792.598450,685.880371 786.863892,685.888977 781.129272,685.878662 
	C766.653870,685.852600 752.149170,686.362244 737.713745,685.586731 
	C728.781494,685.106750 721.957764,687.313538 716.595886,694.484375 
	C715.391968,696.094299 713.152100,696.897400 711.504272,698.215759 
	C709.376953,699.917908 706.205444,701.486572 710.466675,705.164612 
z"/>
<path fill="#6CB5A5" opacity="1.000000" stroke="none" 
	d="
M729.988525,559.434753 
	C724.509216,559.384888 719.217651,558.982605 713.920959,558.894653 
	C706.150696,558.765625 698.376770,558.861389 690.515930,558.861389 
	C696.910889,570.163757 702.983521,580.896484 709.083618,591.799438 
	C702.781067,602.671387 696.404236,613.345764 690.141968,624.086853 
	C687.225891,629.088562 686.243713,629.550232 681.132385,626.725464 
	C673.440613,622.474731 665.811584,618.108765 658.200134,613.715088 
	C655.168274,611.964905 653.616150,610.061829 655.957458,606.166687 
	C663.973022,592.831360 671.554810,579.235779 679.467468,565.837158 
	C680.311096,564.408691 682.260620,563.645874 683.662476,562.530762 
	C685.049438,561.427490 686.321838,560.165466 687.779358,559.170776 
	C688.784790,558.484680 690.015869,557.711548 691.153015,557.700562 
	C702.474731,557.590881 713.798767,557.566223 725.119873,557.701294 
	C726.810364,557.721497 728.489563,558.691956 729.988525,559.434753 
M666.097473,594.730164 
	C664.323669,597.706055 662.607483,600.718201 660.762512,603.649292 
	C658.028137,607.993347 658.473633,609.947266 662.875977,612.440125 
	C665.463501,613.905273 668.012634,615.437988 670.597839,616.907349 
	C675.443237,619.661438 680.302246,622.391663 685.360352,625.247437 
	C691.180237,615.419556 696.662415,606.011963 702.311401,596.705627 
	C704.246643,593.517273 704.420837,590.690674 702.404541,587.445435 
	C698.737732,581.543396 695.440125,575.412781 691.799561,569.493591 
	C688.243958,563.712585 685.511230,563.604797 681.463989,568.913513 
	C680.366211,570.353455 679.536438,571.999878 678.606018,573.564819 
	C674.543884,580.396851 670.489990,587.233765 666.097473,594.730164 
z"/>
<path fill="#EFF8A8" opacity="1.000000" stroke="none" 
	d="
M710.465149,671.494629 
	C705.649963,672.282776 700.854858,673.248352 696.012512,673.796692 
	C692.783508,674.162292 691.092957,672.325867 691.098511,669.015137 
	C691.113647,660.037903 691.118103,651.060608 691.105713,642.083374 
	C691.101196,638.829102 692.636719,636.943665 695.932983,637.183472 
	C699.459412,637.440002 702.953613,638.117554 706.471863,638.525146 
	C707.371765,638.629395 708.308777,638.400024 709.229675,638.338623 
	C713.940796,638.024231 718.658630,637.410400 723.361328,637.509705 
	C726.535095,637.576782 728.113342,639.522583 727.987000,643.172729 
	C727.699707,651.475281 727.742676,659.798584 727.969360,668.104858 
	C728.062378,671.511108 726.565491,673.370300 723.559143,673.428467 
	C719.444519,673.508057 715.316345,672.890808 711.620239,672.097595 
	C715.923950,671.354492 719.801453,671.086060 724.041382,670.755615 
	C724.554565,669.109314 724.705261,667.525146 724.851746,665.510864 
	C724.083984,662.643311 726.929993,658.756226 722.009644,657.617615 
	C725.259338,653.362000 726.994751,648.941101 725.833435,643.920776 
	C725.512451,642.533447 723.753662,641.478699 722.387939,640.295044 
	C721.764587,640.333801 721.408020,640.348938 720.871887,640.037476 
	C719.445374,639.929321 718.198364,640.147827 716.624268,640.350586 
	C715.642700,640.314758 714.988281,640.294495 713.919922,640.180420 
	C712.426147,640.843323 711.346313,641.600098 710.260498,642.778931 
	C710.250366,646.026062 710.246338,648.851196 710.195068,652.076416 
	C711.336487,653.322815 712.622253,654.064209 713.684204,655.047302 
	C714.590393,655.886108 715.239380,657.002808 715.672729,658.027893 
	C714.902649,658.077515 714.461975,658.095825 713.837402,657.839294 
	C712.767151,658.038574 711.880737,658.512756 710.962402,659.401245 
	C710.775391,663.708618 710.620300,667.601624 710.465149,671.494629 
M705.397705,651.546387 
	C705.567017,648.743774 705.736389,645.941101 705.912476,642.321594 
	C703.070007,637.814636 698.726135,640.457153 695.104675,640.441650 
	C694.403137,640.438660 693.588989,644.154053 693.019165,646.207581 
	C692.761841,647.135132 692.678894,648.318726 693.036377,649.167419 
	C693.863220,651.130432 694.834961,654.412231 696.056274,654.556946 
	C699.077820,654.914978 703.172913,657.078613 705.397705,651.546387 
M694.151917,660.035645 
	C694.083191,662.027283 694.165527,664.038330 693.913879,666.006592 
	C693.401611,670.013672 695.074280,671.357544 698.993896,671.014099 
	C702.416443,670.714233 706.460632,671.821594 705.923523,666.078186 
	C705.769226,664.428040 706.150330,662.690918 705.783264,661.110413 
	C705.532776,660.032532 704.406921,658.333435 703.676575,658.335510 
	C700.633667,658.344055 697.592346,658.891846 694.151917,660.035645 
z"/>
<path fill="#D6EF13" opacity="1.000000" stroke="none" 
	d="
M710.640991,671.569031 
	C710.620300,667.601624 710.775391,663.708618 711.299011,659.424316 
	C712.452087,658.726746 713.236633,658.420471 714.021240,658.114136 
	C714.461975,658.095825 714.902649,658.077515 716.098450,658.084839 
	C718.569214,658.070862 720.284912,658.031250 722.000610,657.991638 
	C726.929993,658.756226 724.083984,662.643311 724.597656,665.496216 
	C724.177490,665.908020 724.007263,665.904480 723.579102,665.623779 
	C723.076599,663.753540 722.831970,662.160339 722.570496,660.457153 
	C721.787476,660.291687 721.133545,659.969666 720.543091,660.060425 
	C717.899231,660.466797 714.180298,658.199158 713.852539,663.815430 
	C713.533630,669.280518 716.414429,669.290649 720.184021,669.005249 
	C721.332581,668.918274 722.492615,668.981812 723.698608,669.281616 
	C723.726257,669.997070 723.702637,670.407349 723.678955,670.817627 
	C719.801453,671.086060 715.923950,671.354492 711.613159,671.692322 
	C711.179932,671.761719 710.816833,671.643372 710.640991,671.569031 
z"/>
<path fill="#D5EE0C" opacity="1.000000" stroke="none" 
	d="
M657.507690,673.446533 
	C650.136230,686.823181 642.900085,699.855652 635.756836,712.938843 
	C633.989014,716.176697 632.372131,715.738647 630.803955,712.981140 
	C626.213745,704.909790 621.515869,696.890137 617.236633,688.654602 
	C614.161743,682.736755 616.000549,677.002747 619.102966,671.558655 
	C625.770691,659.858032 632.301697,648.077026 639.165466,636.492920 
	C640.401001,634.407837 642.708496,632.436035 644.963806,631.585144 
	C649.727722,629.787781 654.848999,628.962830 659.700989,627.366028 
	C663.849487,626.000793 665.706177,628.043518 666.749878,631.446960 
	C667.716248,634.598206 668.067566,637.956543 669.204102,641.033752 
	C672.690247,650.472900 666.455872,657.166077 662.795776,664.563599 
	C661.326477,667.533325 659.397156,670.275330 657.507690,673.446533 
z"/>
<path fill="#27937A" opacity="1.000000" stroke="none" 
	d="
M682.201416,688.067749 
	C696.072571,687.931824 695.983521,687.932678 696.110962,701.349609 
	C696.172363,707.812500 696.571228,714.275635 696.958130,720.730286 
	C697.133850,723.660156 696.159119,725.021851 693.060974,725.006592 
	C678.266296,724.933472 663.468750,725.126099 648.676941,724.905579 
	C640.614075,724.785400 637.549438,719.609070 641.191406,712.479065 
	C644.659485,705.689270 648.309692,698.960388 652.419556,692.550842 
	C653.593506,690.720032 656.572815,689.270203 658.851318,689.066528 
	C666.445251,688.387695 674.096802,688.353943 682.201416,688.067749 
z"/>
<path fill="#D5EE09" opacity="1.000000" stroke="none" 
	d="
M710.202332,704.912598 
	C706.205444,701.486572 709.376953,699.917908 711.504272,698.215759 
	C713.152100,696.897400 715.391968,696.094299 716.595886,694.484375 
	C721.957764,687.313538 728.781494,685.106750 737.713745,685.586731 
	C752.149170,686.362244 766.653870,685.852600 781.129272,685.878662 
	C786.863892,685.888977 792.598450,685.880371 798.881470,685.880371 
	C798.462769,687.434570 798.383240,688.555969 797.886353,689.443726 
	C793.841614,696.670349 789.735718,703.863098 785.614136,711.046387 
	C782.573181,716.346130 778.237061,719.263977 771.850830,719.186584 
	C757.876343,719.017151 743.894714,719.273132 729.925903,718.941895 
	C727.295471,718.879517 724.346802,717.369141 722.182678,715.700134 
	C718.035522,712.501831 714.346069,708.710083 710.202332,704.912598 
z"/>
<path fill="#1D8E74" opacity="1.000000" stroke="none" 
	d="
M666.265259,594.399536 
	C670.489990,587.233765 674.543884,580.396851 678.606018,573.564819 
	C679.536438,571.999878 680.366211,570.353455 681.463989,568.913513 
	C685.511230,563.604797 688.243958,563.712585 691.799561,569.493591 
	C695.440125,575.412781 698.737732,581.543396 702.404541,587.445435 
	C704.420837,590.690674 704.246643,593.517273 702.311401,596.705627 
	C696.662415,606.011963 691.180237,615.419556 685.360352,625.247437 
	C680.302246,622.391663 675.443237,619.661438 670.597839,616.907349 
	C668.012634,615.437988 665.463501,613.905273 662.875977,612.440125 
	C658.473633,609.947266 658.028137,607.993347 660.762512,603.649292 
	C662.607483,600.718201 664.323669,597.706055 666.265259,594.399536 
z"/>
<path fill="#D6EF13" opacity="1.000000" stroke="none" 
	d="
M714.333801,640.274292 
	C714.988281,640.294495 715.642700,640.314758 716.868103,640.553955 
	C718.643127,640.636597 719.847290,640.500305 721.051392,640.364014 
	C721.408020,640.348938 721.764587,640.333801 722.537109,640.667053 
	C723.314880,642.764343 723.935913,644.504944 723.992554,646.263733 
	C724.203674,652.828186 723.653320,653.362427 717.031067,652.910095 
	C714.750732,652.754333 712.504272,652.101868 710.242310,651.676270 
	C710.246338,648.851196 710.250366,646.026062 710.599121,642.689087 
	C712.073853,641.542847 713.203857,640.908569 714.333801,640.274292 
z"/>
<path fill="#D6EF13" opacity="1.000000" stroke="none" 
	d="
M694.351196,659.638794 
	C697.592346,658.891846 700.633667,658.344055 703.676575,658.335510 
	C704.406921,658.333435 705.532776,660.032532 705.783264,661.110413 
	C706.150330,662.690918 705.769226,664.428040 705.923523,666.078186 
	C706.460632,671.821594 702.416443,670.714233 698.993896,671.014099 
	C695.074280,671.357544 693.401611,670.013672 693.913879,666.006592 
	C694.165527,664.038330 694.083191,662.027283 694.351196,659.638794 
z"/>
<path fill="#D5EE0C" opacity="1.000000" stroke="none" 
	d="
M705.905762,643.138489 
	C705.736389,645.941101 705.567017,648.743774 704.804199,651.863403 
	C703.221558,652.172913 702.220703,652.063477 701.245239,652.175476 
	C696.820801,652.683472 694.544006,651.437744 694.751099,646.299561 
	C694.971130,640.841797 698.553223,641.888123 701.678955,641.955933 
	C703.095764,641.986633 704.497253,642.722473 705.905762,643.138489 
z"/>
<path fill="#E3F280" opacity="1.000000" stroke="none" 
	d="
M705.909058,642.730042 
	C704.497253,642.722473 703.095764,641.986633 701.678955,641.955933 
	C698.553223,641.888123 694.971130,640.841797 694.751099,646.299561 
	C694.544006,651.437744 696.820801,652.683472 701.245239,652.175476 
	C702.220703,652.063477 703.221558,652.172913 704.671265,652.256409 
	C703.172913,657.078613 699.077820,654.914978 696.056274,654.556946 
	C694.834961,654.412231 693.863220,651.130432 693.036377,649.167419 
	C692.678894,648.318726 692.761841,647.135132 693.019165,646.207581 
	C693.588989,644.154053 694.403137,640.438660 695.104675,640.441650 
	C698.726135,640.457153 703.070007,637.814636 705.909058,642.730042 
z"/>
<path fill="#E3F280" opacity="1.000000" stroke="none" 
	d="
M710.195068,652.076416 
	C712.504272,652.101868 714.750732,652.754333 717.031067,652.910095 
	C723.653320,653.362427 724.203674,652.828186 723.992554,646.263733 
	C723.935913,644.504944 723.314880,642.764343 722.803833,640.643372 
	C723.753662,641.478699 725.512451,642.533447 725.833435,643.920776 
	C726.994751,648.941101 725.259338,653.362000 722.009644,657.617615 
	C720.284912,658.031250 718.569214,658.070862 716.427856,658.053589 
	C715.239380,657.002808 714.590393,655.886108 713.684204,655.047302 
	C712.622253,654.064209 711.336487,653.322815 710.195068,652.076416 
z"/>
<path fill="#E3F280" opacity="1.000000" stroke="none" 
	d="
M724.041382,670.755615 
	C723.702637,670.407349 723.726257,669.997070 723.825073,668.911255 
	C723.879272,667.457397 723.858154,666.679138 723.837036,665.900879 
	C724.007263,665.904480 724.177490,665.908020 724.601868,665.926270 
	C724.705261,667.525146 724.554565,669.109314 724.041382,670.755615 
z"/>
<path fill="#E3F280" opacity="1.000000" stroke="none" 
	d="
M713.919922,640.180420 
	C713.203857,640.908569 712.073853,641.542847 710.605225,642.266968 
	C711.346313,641.600098 712.426147,640.843323 713.919922,640.180420 
z"/>
<path fill="#E3F280" opacity="1.000000" stroke="none" 
	d="
M720.871887,640.037476 
	C719.847290,640.500305 718.643127,640.636597 717.195190,640.569580 
	C718.198364,640.147827 719.445374,639.929321 720.871887,640.037476 
z"/>
<path fill="#E3F280" opacity="1.000000" stroke="none" 
	d="
M713.837402,657.839355 
	C713.236633,658.420471 712.452087,658.726746 711.330933,659.010010 
	C711.880737,658.512756 712.767151,658.038574 713.837402,657.839355 
z"/>
<path fill="#D5EE0A" opacity="1.000000" stroke="none" 
	d="
M723.579102,665.623779 
	C723.858154,666.679138 723.879272,667.457397 723.773865,668.606018 
	C722.492615,668.981812 721.332581,668.918274 720.184021,669.005249 
	C716.414429,669.290649 713.533630,669.280518 713.852539,663.815430 
	C714.180298,658.199158 717.899231,660.466797 720.543091,660.060425 
	C721.133545,659.969666 721.787476,660.291687 722.570496,660.457153 
	C722.831970,662.160339 723.076599,663.753540 723.579102,665.623779 
z"/>
</svg>