<svg version="1.1" id="Layer_1" xmlns="http://www.w3.org/2000/svg" xmlns:xlink="http://www.w3.org/1999/xlink" x="0px" y="0px"
	 width="100%" viewBox="0 0 430 428" enable-background="new 0 0 430 428" xml:space="preserve">
<path fill="#FDFEFD" opacity="1.000000" stroke="none" 
	d="
M431.000000,151.000000 
	C431.000000,243.999985 431.000000,336.499969 431.000000,429.000000 
	C287.666687,429.000000 144.333389,429.000000 1.000063,429.000000 
	C1.000042,286.333374 1.000042,143.666763 1.000021,1.000102 
	C144.333267,1.000068 287.666534,1.000068 430.999908,1.000034 
	C431.000000,50.833332 431.000000,100.666664 431.000000,151.000000 
M314.977875,338.939240 
	C314.977875,338.939240 315.252625,338.712158 315.329102,339.277405 
	C314.835083,340.351654 314.341064,341.425934 313.396545,342.761871 
	C313.237396,342.831360 313.078217,342.900818 312.138153,343.139435 
	C311.809143,343.681427 311.195312,344.222076 311.192719,344.765625 
	C311.127258,358.708618 311.071655,372.652466 311.218872,386.593994 
	C311.230255,387.670288 312.681976,389.584930 313.574188,389.652252 
	C317.690887,389.962708 321.880005,390.066376 325.976227,389.624176 
	C328.594910,389.341492 328.920898,387.337158 327.059265,384.008057 
	C327.081879,370.663696 327.104492,357.319366 327.600891,343.576385 
	C326.434692,342.431122 325.268494,341.285858 324.065948,340.104889 
	C324.248871,339.665527 324.606689,338.805969 325.324280,337.443268 
	C326.012573,336.674683 326.700897,335.906128 327.905182,335.019897 
	C327.970520,334.351532 328.035858,333.683197 328.073120,332.367706 
	C328.121094,331.939575 328.169067,331.511475 328.818085,330.946808 
	C329.353394,325.987518 326.763916,322.926453 321.204742,322.866547 
	C320.125977,322.848297 319.047211,322.830048 317.561890,322.354645 
	C316.694092,322.875122 315.826294,323.395630 314.534821,324.316498 
	C313.973907,324.854584 313.413025,325.392700 312.145050,326.069000 
	C309.937347,328.629181 308.480133,331.236328 311.941223,334.584625 
	C312.088043,334.914703 312.234863,335.244812 312.189392,336.313263 
	C313.208160,337.109070 314.226929,337.904877 314.977875,338.939240 
M196.499664,258.281525 
	C218.489151,258.279541 240.479019,258.212860 262.467804,258.336487 
	C266.331543,258.358215 267.997620,257.175964 268.500214,253.135300 
	C269.567810,244.552185 271.235870,236.044449 272.627075,227.500809 
	C277.578125,197.094849 282.551941,166.692459 287.398224,136.269791 
	C287.832275,133.545074 288.866821,132.316467 291.586426,131.666092 
	C298.860168,129.926605 303.373535,124.242416 303.295563,117.497818 
	C303.218170,110.800087 298.413788,105.243164 291.000122,103.920395 
	C287.509399,103.297577 285.548676,101.609703 283.896027,98.542419 
	C277.105377,85.939163 269.967224,73.523315 263.154480,60.931602 
	C261.633179,58.119827 259.668732,57.408607 256.722321,57.415394 
	C228.569199,57.480244 200.415680,57.491238 172.262863,57.374897 
	C169.019577,57.361496 167.120224,58.373600 165.554947,61.265045 
	C158.737885,73.857880 151.656998,86.307617 144.774460,98.865524 
	C143.236984,101.670815 141.384583,103.338287 138.007538,103.906967 
	C131.038177,105.080582 126.893967,110.099831 126.487106,116.964256 
	C126.096931,123.546967 130.054047,129.600586 136.615051,131.251266 
	C139.983078,132.098633 141.165878,133.703735 141.651382,136.893768 
	C143.780884,150.885880 146.087479,164.851196 148.359177,178.821457 
	C152.368439,203.477341 156.457214,228.120544 160.359863,252.793243 
	C160.966278,256.626984 161.995193,258.481415 166.522522,258.287933 
	C176.164047,257.875793 185.838608,258.236664 196.499664,258.281525 
M281.500122,36.591152 
	C298.317352,36.594170 315.135742,36.703465 331.951019,36.523754 
	C336.036224,36.480091 337.435150,37.712006 337.398499,41.894890 
	C337.221985,62.040749 337.321381,82.189041 337.328430,102.336472 
	C337.329468,105.333344 337.163483,108.347176 337.420258,111.323357 
	C337.880798,116.660706 341.938660,120.620522 346.707306,120.707016 
	C351.588959,120.795555 355.711456,117.125626 356.510681,111.839272 
	C356.732758,110.370544 356.636719,108.849487 356.638947,107.352371 
	C356.677460,81.377800 356.710144,55.403214 356.740234,29.428629 
	C356.749115,21.765095 352.974121,17.462072 345.277222,17.418106 
	C318.137421,17.263075 290.995850,17.278137 263.855804,17.410522 
	C257.129395,17.443333 253.094147,21.276239 253.096542,26.731236 
	C253.098999,32.330154 257.504517,36.408493 264.017456,36.571804 
	C269.508453,36.709496 275.005829,36.593933 281.500122,36.591152 
M81.945122,120.714539 
	C89.405922,120.604843 92.931198,117.180740 92.949387,109.727043 
	C93.003845,87.411682 93.100945,65.095009 92.892204,42.781548 
	C92.847687,38.023380 94.211685,36.447762 99.077293,36.502804 
	C121.223572,36.753319 143.373810,36.668171 165.522629,36.671383 
	C173.050003,36.672474 177.000183,33.394745 177.039566,27.249607 
	C177.080521,20.859241 173.059311,17.361626 165.471115,17.313940 
	C157.810944,17.265799 150.150223,17.307034 142.489731,17.310438 
	C123.671425,17.318804 104.853050,17.301151 86.034843,17.349194 
	C77.869049,17.370041 74.278999,20.602253 73.757675,28.469444 
	C73.583031,31.105040 73.977715,33.773151 73.980881,36.426556 
	C74.009888,60.740456 74.057632,85.054543 73.981789,109.368210 
	C73.964844,114.801125 75.796951,118.756332 81.945122,120.714539 
M349.640167,297.641235 
	C354.765991,296.362335 356.412720,292.521423 356.423553,287.846466 
	C356.487305,260.351501 356.542389,232.855438 356.296600,205.362473 
	C356.272614,202.676666 354.890625,198.905930 352.873322,197.611908 
	C350.335083,195.983688 346.215546,195.361542 343.278809,196.155807 
	C338.882660,197.344788 337.280457,201.452911 337.290741,206.062195 
	C337.340546,228.391388 337.213837,250.721786 337.425171,273.049164 
	C337.469055,277.685181 336.373199,279.489746 331.362457,279.370758 
	C317.872711,279.050476 304.369873,279.271118 290.872284,279.295074 
	C284.540894,279.306305 278.193970,279.096191 271.882812,279.470703 
	C266.147430,279.811035 262.778137,283.991791 263.065063,289.520325 
	C263.337860,294.776031 266.548431,297.821930 272.315857,297.829437 
	C297.810120,297.862640 323.304474,297.800354 349.640167,297.641235 
M153.382370,279.277435 
	C135.388977,279.274780 117.395584,279.281128 99.402214,279.264496 
	C93.155121,279.258698 92.992821,279.073700 92.983879,272.793945 
	C92.951645,250.136200 92.978737,227.478149 92.855865,204.820908 
	C92.822578,198.682663 89.024567,195.100052 83.232567,195.181900 
	C77.758789,195.259247 74.258621,198.857071 74.239304,204.895523 
	C74.150276,232.718140 74.112144,260.541168 74.162895,288.363831 
	C74.174919,294.955414 77.187767,297.849487 83.641731,297.857849 
	C108.465889,297.890076 133.290482,297.799927 158.113998,297.930634 
	C163.159546,297.957184 166.006805,295.443207 167.260025,291.093109 
	C168.505783,286.768890 166.792984,282.900909 162.926941,280.898743 
	C160.449478,279.615662 157.226242,279.772644 153.382370,279.277435 
M240.066864,341.654816 
	C235.023376,342.781738 229.979889,343.908661 224.104050,345.221588 
	C224.104050,341.008057 224.278854,336.079468 223.990906,331.178131 
	C223.910980,329.817596 222.566803,327.500153 221.616776,327.400879 
	C217.564590,326.977509 213.442749,327.220795 209.344955,327.220795 
	C209.344955,348.144806 209.344955,368.315826 209.344955,388.869293 
	C213.440659,388.869293 217.084900,388.761780 220.719421,388.903381 
	C223.621262,389.016418 224.341339,387.797852 224.284561,385.010468 
	C224.135559,377.696594 224.169464,370.369995 224.434753,363.059540 
	C224.645264,357.258911 227.836838,354.297119 233.144348,354.364227 
	C238.451157,354.431305 241.380646,357.490509 241.476227,363.394867 
	C241.592041,370.548828 241.423264,377.708527 241.623276,384.858887 
	C241.660324,386.183197 242.743866,388.511902 243.546616,388.603394 
	C247.157608,389.015076 250.854095,388.946167 254.488419,388.656830 
	C255.217255,388.598816 256.370361,386.828857 256.377167,385.841736 
	C256.438965,376.861237 256.744324,367.845520 256.081116,358.906708 
	C255.343506,348.964844 250.617691,344.184906 240.066864,341.654816 
M357.822906,350.635162 
	C360.445160,347.735413 360.493866,351.021545 360.946045,352.122925 
	C365.370941,362.901215 369.812256,373.678131 373.881683,384.592316 
	C374.642487,386.632935 374.329498,389.487152 373.548218,391.611389 
	C371.280426,397.777252 368.522705,403.762909 365.514923,410.863495 
	C369.477661,410.863495 372.421509,410.633453 375.314484,410.918976 
	C379.362091,411.318512 381.554932,409.896667 383.204407,405.979095 
	C391.535767,386.192139 400.199188,366.545074 408.714478,346.835297 
	C409.212097,345.683563 409.432404,344.412018 409.784302,343.187378 
	C397.859741,340.207855 395.304443,341.496338 391.451813,352.145508 
	C391.055420,353.241272 390.643280,354.331451 390.228180,355.420319 
	C388.436920,360.119141 386.641846,364.816498 384.848145,369.514374 
	C382.892914,367.798126 382.150146,366.214081 381.576447,364.570984 
	C379.382111,358.286163 377.436371,351.903717 374.941498,345.742523 
	C374.338867,344.254333 372.057281,342.659515 370.427917,342.520660 
	C365.471283,342.098297 360.452087,342.467316 355.466797,342.277466 
	C354.419769,342.237579 352.974640,341.346832 352.523346,340.443359 
	C352.142853,339.681671 352.693024,337.538147 353.251007,337.365875 
	C359.115875,335.555145 356.891693,330.770508 357.303711,326.962250 
	C357.628571,323.959412 356.011139,323.326019 353.379059,323.384918 
	C344.252655,323.589050 338.509552,328.829163 337.180359,337.879242 
	C336.932800,339.564941 334.600708,340.956238 334.384277,342.632355 
	C333.899384,346.387482 332.657379,351.494751 334.514465,353.683289 
	C336.273834,355.756653 337.178711,357.278778 337.186646,359.687042 
	C337.214020,368.012146 337.092468,376.339844 337.292450,384.660187 
	C337.326447,386.073730 338.545380,388.568542 339.420319,388.662170 
	C343.455444,389.093811 347.562561,388.852570 352.229431,388.852570 
	C352.229431,376.954498 352.229431,365.896759 352.229431,354.839020 
	C352.651611,355.073975 353.073822,355.308929 353.496002,355.543854 
	C354.927612,354.173706 356.359253,352.803558 357.822906,350.635162 
M135.924637,344.630707 
	C131.485474,343.742798 126.919441,341.721619 122.633430,342.201508 
	C113.550041,343.218475 106.855598,350.231781 105.267899,359.144897 
	C103.402428,369.617310 104.854950,379.294952 114.275803,385.866791 
	C122.321060,391.478973 130.513138,390.641235 138.765945,384.347504 
	C139.000702,389.102600 141.998276,389.038879 145.102524,388.894745 
	C146.930511,388.809875 148.772079,388.784088 150.596176,388.904144 
	C153.238892,389.078064 154.056686,387.855103 154.044662,385.338379 
	C153.981857,372.181793 154.080002,359.024170 153.951813,345.868591 
	C153.940674,344.724609 152.448166,342.528107 152.056595,342.618073 
	C147.640778,343.632233 141.957901,339.291992 138.707794,345.564484 
	C138.630341,345.713928 137.309387,345.218994 135.924637,344.630707 
M166.587341,384.966278 
	C175.429932,390.812378 184.683685,391.072662 194.070023,386.615936 
	C199.363037,384.102692 202.049149,379.687073 201.680328,373.694519 
	C201.320663,367.850952 197.674683,364.785309 192.460968,363.234222 
	C187.844650,361.860931 183.135330,360.783203 178.572266,359.259888 
	C177.424026,358.876526 176.678680,357.286407 175.748184,356.250885 
	C176.896271,355.222198 177.912186,353.610077 179.225891,353.312469 
	C180.868317,352.940399 183.490021,352.983002 184.415024,354.002472 
	C189.475204,359.579346 195.404892,356.074615 201.221130,356.867249 
	C201.186676,350.853180 198.419464,347.290070 194.165756,344.909210 
	C186.742844,340.754456 178.847977,340.468262 171.021973,343.462952 
	C163.444290,346.362671 159.816925,353.040741 161.759277,359.592865 
	C163.409866,365.160828 168.115829,366.967682 173.004822,368.380554 
	C176.834763,369.487366 180.794220,370.174774 184.565445,371.438538 
	C185.686996,371.814423 187.101120,373.548523 187.046066,374.589691 
	C186.988617,375.675873 185.430634,377.388947 184.332047,377.559265 
	C182.356277,377.865479 179.170395,377.979492 178.362869,376.843079 
	C175.421631,372.703857 171.453156,373.535828 167.599152,373.686493 
	C165.584442,373.765228 163.593842,374.459778 161.592346,374.876221 
	C162.205353,377.073395 162.638474,379.344727 163.502075,381.438538 
	C163.982712,382.603851 165.180435,383.473389 166.587341,384.966278 
M43.500187,330.131470 
	C37.843121,330.136780 32.179607,330.307373 26.531330,330.087158 
	C22.975569,329.948547 21.434332,330.921906 21.518867,334.802612 
	C21.665033,341.512299 21.445032,341.516876 28.395035,341.508209 
	C30.058857,341.506134 31.734272,341.631622 33.384109,341.479279 
	C36.889420,341.155487 38.010578,342.716858 37.973160,346.126129 
	C37.838036,358.437073 37.912960,370.750488 37.934219,383.062866 
	C37.937263,384.825287 38.081333,386.587433 38.184093,388.885468 
	C41.794674,388.885468 44.928459,388.713165 48.034836,388.931244 
	C51.521328,389.176056 52.697998,387.823792 52.636562,384.342560 
	C52.460430,374.362610 52.532162,364.377228 52.595512,354.394562 
	C52.620670,350.429321 51.419422,345.153564 53.458485,342.883240 
	C55.361568,340.764374 60.829006,341.498291 64.711914,341.596191 
	C69.341385,341.712952 68.695572,338.755035 68.679214,335.938507 
	C68.662102,332.990082 69.417297,329.824707 64.462524,330.058594 
	C57.822021,330.372040 51.155457,330.133301 43.500187,330.131470 
M87.125618,388.809998 
	C87.789948,387.343842 88.972000,385.897400 89.028641,384.408142 
	C89.268806,378.093719 88.975105,371.757477 89.262032,365.446777 
	C89.521431,359.741821 91.897263,356.841522 96.947258,356.899872 
	C101.892242,356.956970 102.991280,354.779633 102.535164,350.568878 
	C102.374794,349.088348 102.409149,347.569305 102.519920,346.080170 
	C102.849586,341.648163 100.516312,341.170532 97.308136,342.794708 
	C94.755035,344.087158 92.473862,345.916809 89.779030,347.702026 
	C89.253967,345.709686 88.856682,344.202179 88.377205,342.382812 
	C85.004585,342.382812 81.855003,342.523315 78.723770,342.343842 
	C75.497948,342.158966 74.329559,343.371002 74.385208,346.666290 
	C74.556572,356.813843 74.461128,366.965912 74.463692,377.116241 
	C74.466682,388.925934 74.464096,388.925934 87.125618,388.809998 
M269.940155,353.486938 
	C262.800507,353.099518 266.214996,358.541016 265.580627,361.605835 
	C264.918274,364.805725 266.552917,365.964874 269.812775,365.907013 
	C279.296082,365.738770 288.792206,365.603607 298.266724,365.932739 
	C302.760315,366.088837 303.219971,363.943115 302.876678,360.489502 
	C302.563171,357.335510 304.431702,353.197235 298.304779,353.413452 
	C289.163025,353.736023 280.001221,353.492249 269.940155,353.486938 
z"/>
<path fill="#2E937C" opacity="1.000000" stroke="none" 
	d="
M195.999634,258.281128 
	C185.838608,258.236664 176.164047,257.875793 166.522522,258.287933 
	C161.995193,258.481415 160.966278,256.626984 160.359863,252.793243 
	C156.457214,228.120544 152.368439,203.477341 148.359177,178.821457 
	C146.087479,164.851196 143.780884,150.885880 141.651382,136.893768 
	C141.165878,133.703735 139.983078,132.098633 136.615051,131.251266 
	C130.054047,129.600586 126.096931,123.546967 126.487106,116.964256 
	C126.893967,110.099831 131.038177,105.080582 138.007538,103.906967 
	C141.384583,103.338287 143.236984,101.670815 144.774460,98.865524 
	C151.656998,86.307617 158.737885,73.857880 165.554947,61.265045 
	C167.120224,58.373600 169.019577,57.361496 172.262863,57.374897 
	C200.415680,57.491238 228.569199,57.480244 256.722321,57.415394 
	C259.668732,57.408607 261.633179,58.119827 263.154480,60.931602 
	C269.967224,73.523315 277.105377,85.939163 283.896027,98.542419 
	C285.548676,101.609703 287.509399,103.297577 291.000122,103.920395 
	C298.413788,105.243164 303.218170,110.800087 303.295563,117.497818 
	C303.373535,124.242416 298.860168,129.926605 291.586426,131.666092 
	C288.866821,132.316467 287.832275,133.545074 287.398224,136.269791 
	C282.551941,166.692459 277.578125,197.094849 272.627075,227.500809 
	C271.235870,236.044449 269.567810,244.552185 268.500214,253.135300 
	C267.997620,257.175964 266.331543,258.358215 262.467804,258.336487 
	C240.479019,258.212860 218.489151,258.279541 195.999634,258.281128 
M278.377777,132.886230 
	C276.943176,132.629974 275.508789,132.151443 274.073914,132.149872 
	C234.418930,132.106354 194.763885,132.106735 155.108871,132.124893 
	C153.518127,132.125626 151.927490,132.370956 150.537506,132.485748 
	C150.282639,133.345993 150.068130,133.678238 150.114563,133.968765 
	C156.051636,171.109436 162.037491,208.242340 167.914001,245.392548 
	C168.458481,248.834732 170.215332,249.570267 173.361862,249.559769 
	C200.686890,249.468597 228.012680,249.436920 255.337265,249.577393 
	C259.141663,249.596939 260.525909,248.310013 261.094421,244.606506 
	C264.125702,224.859711 267.436829,205.156067 270.586792,185.427200 
	C273.340576,168.179947 276.009033,150.919083 278.377777,132.886230 
M176.503357,103.638092 
	C209.561951,103.638092 242.620560,103.638092 275.571930,103.638092 
	C275.741821,102.638947 275.946411,102.242577 275.826508,102.025475 
	C269.473907,90.525223 263.192810,78.982346 256.568420,67.640076 
	C255.882660,66.465942 253.074188,65.971878 251.372711,66.176613 
	C250.462875,66.286095 249.366455,68.485260 249.126114,69.874855 
	C248.190765,75.282486 247.390564,80.727493 246.885605,86.190529 
	C246.561340,89.698570 245.234116,90.950912 241.568878,90.913490 
	C223.421143,90.728226 205.270096,90.755470 187.121414,90.880623 
	C183.793655,90.903572 182.326218,89.913116 182.030121,86.471954 
	C181.574432,81.175751 180.804703,75.891273 179.836319,70.663292 
	C179.523987,68.977158 178.525711,66.646515 177.210373,66.082863 
	C174.688965,65.002357 172.653976,66.387955 171.233459,69.002983 
	C165.751968,79.093849 160.063965,89.072411 154.483994,99.110107 
	C153.876892,100.202209 153.470917,101.406113 152.503845,103.637596 
	C160.713730,103.637596 168.109726,103.637596 176.503357,103.638092 
M182.499954,123.311745 
	C217.159866,123.311310 251.819809,123.323395 286.479706,123.296730 
	C291.580170,123.292809 294.475677,121.175423 294.206116,117.552780 
	C293.868896,113.020828 290.657501,112.023506 286.767639,112.023956 
	C238.610413,112.029510 190.453171,112.021744 142.295944,112.013985 
	C138.299271,112.013344 135.118896,113.455971 135.173538,117.861130 
	C135.229324,122.358665 138.514069,123.371506 142.507812,123.343437 
	C155.504608,123.252098 168.502487,123.310982 182.499954,123.311745 
M189.865952,79.568901 
	C191.150070,80.498177 192.423523,82.217690 193.719925,82.235161 
	C207.533981,82.421471 221.352142,82.384392 235.167572,82.247414 
	C236.379700,82.235390 238.477448,81.256599 238.637878,80.430519 
	C239.533493,75.818413 239.959122,71.115036 240.556183,66.356857 
	C222.608826,66.356857 205.596405,66.356857 188.170166,66.356857 
	C188.734253,70.809280 189.233215,74.747589 189.865952,79.568901 
z"/>
<path fill="#D5EE0F" opacity="1.000000" stroke="none" 
	d="
M281.000244,36.590813 
	C275.005829,36.593933 269.508453,36.709496 264.017456,36.571804 
	C257.504517,36.408493 253.098999,32.330154 253.096542,26.731236 
	C253.094147,21.276239 257.129395,17.443333 263.855804,17.410522 
	C290.995850,17.278137 318.137421,17.263075 345.277222,17.418106 
	C352.974121,17.462072 356.749115,21.765095 356.740234,29.428629 
	C356.710144,55.403214 356.677460,81.377800 356.638947,107.352371 
	C356.636719,108.849487 356.732758,110.370544 356.510681,111.839272 
	C355.711456,117.125626 351.588959,120.795555 346.707306,120.707016 
	C341.938660,120.620522 337.880798,116.660706 337.420258,111.323357 
	C337.163483,108.347176 337.329468,105.333344 337.328430,102.336472 
	C337.321381,82.189041 337.221985,62.040749 337.398499,41.894890 
	C337.435150,37.712006 336.036224,36.480091 331.951019,36.523754 
	C315.135742,36.703465 298.317352,36.594170 281.000244,36.590813 
z"/>
<path fill="#D5EE10" opacity="1.000000" stroke="none" 
	d="
M81.561554,120.648590 
	C75.796951,118.756332 73.964844,114.801125 73.981789,109.368210 
	C74.057632,85.054543 74.009888,60.740456 73.980881,36.426556 
	C73.977715,33.773151 73.583031,31.105040 73.757675,28.469444 
	C74.278999,20.602253 77.869049,17.370041 86.034843,17.349194 
	C104.853050,17.301151 123.671425,17.318804 142.489731,17.310438 
	C150.150223,17.307034 157.810944,17.265799 165.471115,17.313940 
	C173.059311,17.361626 177.080521,20.859241 177.039566,27.249607 
	C177.000183,33.394745 173.050003,36.672474 165.522629,36.671383 
	C143.373810,36.668171 121.223572,36.753319 99.077293,36.502804 
	C94.211685,36.447762 92.847687,38.023380 92.892204,42.781548 
	C93.100945,65.095009 93.003845,87.411682 92.949387,109.727043 
	C92.931198,117.180740 89.405922,120.604843 81.561554,120.648590 
z"/>
<path fill="#D5EE11" opacity="1.000000" stroke="none" 
	d="
M349.219482,297.706970 
	C323.304474,297.800354 297.810120,297.862640 272.315857,297.829437 
	C266.548431,297.821930 263.337860,294.776031 263.065063,289.520325 
	C262.778137,283.991791 266.147430,279.811035 271.882812,279.470703 
	C278.193970,279.096191 284.540894,279.306305 290.872284,279.295074 
	C304.369873,279.271118 317.872711,279.050476 331.362457,279.370758 
	C336.373199,279.489746 337.469055,277.685181 337.425171,273.049164 
	C337.213837,250.721786 337.340546,228.391388 337.290741,206.062195 
	C337.280457,201.452911 338.882660,197.344788 343.278809,196.155807 
	C346.215546,195.361542 350.335083,195.983688 352.873322,197.611908 
	C354.890625,198.905930 356.272614,202.676666 356.296600,205.362473 
	C356.542389,232.855438 356.487305,260.351501 356.423553,287.846466 
	C356.412720,292.521423 354.765991,296.362335 349.219482,297.706970 
z"/>
<path fill="#D6EE15" opacity="1.000000" stroke="none" 
	d="
M153.859833,279.280762 
	C157.226242,279.772644 160.449478,279.615662 162.926941,280.898743 
	C166.792984,282.900909 168.505783,286.768890 167.260025,291.093109 
	C166.006805,295.443207 163.159546,297.957184 158.113998,297.930634 
	C133.290482,297.799927 108.465889,297.890076 83.641731,297.857849 
	C77.187767,297.849487 74.174919,294.955414 74.162895,288.363831 
	C74.112144,260.541168 74.150276,232.718140 74.239304,204.895523 
	C74.258621,198.857071 77.758789,195.259247 83.232567,195.181900 
	C89.024567,195.100052 92.822578,198.682663 92.855865,204.820908 
	C92.978737,227.478149 92.951645,250.136200 92.983879,272.793945 
	C92.992821,279.073700 93.155121,279.258698 99.402214,279.264496 
	C117.395584,279.281128 135.388977,279.274780 153.859833,279.280762 
z"/>
<path fill="#289179" opacity="1.000000" stroke="none" 
	d="
M240.459595,341.724670 
	C250.617691,344.184906 255.343506,348.964844 256.081116,358.906708 
	C256.744324,367.845520 256.438965,376.861237 256.377167,385.841736 
	C256.370361,386.828857 255.217255,388.598816 254.488419,388.656830 
	C250.854095,388.946167 247.157608,389.015076 243.546616,388.603394 
	C242.743866,388.511902 241.660324,386.183197 241.623276,384.858887 
	C241.423264,377.708527 241.592041,370.548828 241.476227,363.394867 
	C241.380646,357.490509 238.451157,354.431305 233.144348,354.364227 
	C227.836838,354.297119 224.645264,357.258911 224.434753,363.059540 
	C224.169464,370.369995 224.135559,377.696594 224.284561,385.010468 
	C224.341339,387.797852 223.621262,389.016418 220.719421,388.903381 
	C217.084900,388.761780 213.440659,388.869293 209.344955,388.869293 
	C209.344955,368.315826 209.344955,348.144806 209.344955,327.220795 
	C213.442749,327.220795 217.564590,326.977509 221.616776,327.400879 
	C222.566803,327.500153 223.910980,329.817596 223.990906,331.178131 
	C224.278854,336.079468 224.104050,341.008057 224.104050,345.221588 
	C229.979889,343.908661 235.023376,342.781738 240.459595,341.724670 
z"/>
<path fill="#31947D" opacity="1.000000" stroke="none" 
	d="
M357.806885,351.034302 
	C356.359253,352.803558 354.927612,354.173706 353.496002,355.543854 
	C353.073822,355.308929 352.651611,355.073975 352.229431,354.839020 
	C352.229431,365.896759 352.229431,376.954498 352.229431,388.852570 
	C347.562561,388.852570 343.455444,389.093811 339.420319,388.662170 
	C338.545380,388.568542 337.326447,386.073730 337.292450,384.660187 
	C337.092468,376.339844 337.214020,368.012146 337.186646,359.687042 
	C337.178711,357.278778 336.273834,355.756653 334.514465,353.683289 
	C332.657379,351.494751 333.899384,346.387482 334.384277,342.632355 
	C334.600708,340.956238 336.932800,339.564941 337.180359,337.879242 
	C338.509552,328.829163 344.252655,323.589050 353.379059,323.384918 
	C356.011139,323.326019 357.628571,323.959412 357.303711,326.962250 
	C356.891693,330.770508 359.115875,335.555145 353.251007,337.365875 
	C352.693024,337.538147 352.142853,339.681671 352.523346,340.443359 
	C352.974640,341.346832 354.419769,342.237579 355.466797,342.277466 
	C360.452087,342.467316 365.471283,342.098297 370.427917,342.520660 
	C372.057281,342.659515 374.338867,344.254333 374.941498,345.742523 
	C377.436371,351.903717 379.382111,358.286163 381.576447,364.570984 
	C382.150146,366.214081 382.892914,367.798126 384.848145,369.514374 
	C386.641846,364.816498 388.436920,360.119141 390.228180,355.420319 
	C390.643280,354.331451 391.055420,353.241272 391.451813,352.145508 
	C395.304443,341.496338 397.859741,340.207855 409.784302,343.187378 
	C409.432404,344.412018 409.212097,345.683563 408.714478,346.835297 
	C400.199188,366.545074 391.535767,386.192139 383.204407,405.979095 
	C381.554932,409.896667 379.362091,411.318512 375.314484,410.918976 
	C372.421509,410.633453 369.477661,410.863495 365.514923,410.863495 
	C368.522705,403.762909 371.280426,397.777252 373.548218,391.611389 
	C374.329498,389.487152 374.642487,386.632935 373.881683,384.592316 
	C369.812256,373.678131 365.370941,362.901215 360.946045,352.122925 
	C360.493866,351.021545 360.445160,347.735413 357.806885,351.034302 
M375.594177,408.020203 
	C378.926849,408.554779 380.897369,407.065979 382.045044,403.974091 
	C383.244568,400.742493 384.658539,397.589050 386.021759,394.419983 
	C390.709686,383.521698 395.430725,372.637634 400.110199,361.735748 
	C402.488770,356.194336 404.805603,350.626404 407.150391,345.070496 
	C406.860809,344.514038 406.571259,343.957611 406.281677,343.401184 
	C402.923828,344.244537 397.786865,344.036530 396.548370,346.132294 
	C393.104187,351.960541 391.509216,358.848450 388.712708,365.107330 
	C387.433899,367.969391 387.246765,372.083984 382.491730,373.041199 
	C378.971222,363.418732 375.528259,354.008301 372.050018,344.501343 
	C369.368835,344.351410 366.403107,343.938873 363.492310,344.182526 
	C362.684174,344.250153 361.270660,347.111877 361.433075,347.259003 
	C364.341370,349.894257 364.015350,353.587555 365.109039,356.847809 
	C368.042633,365.593201 371.453979,374.202881 375.152863,382.657654 
	C377.319214,387.609375 376.415222,391.721252 374.023468,396.178772 
	C371.977478,399.991821 370.575684,404.150513 368.448883,409.201599 
	C371.348480,408.674957 373.053009,408.365387 375.594177,408.020203 
z"/>
<path fill="#289179" opacity="1.000000" stroke="none" 
	d="
M136.246536,344.827667 
	C137.309387,345.218994 138.630341,345.713928 138.707794,345.564484 
	C141.957901,339.291992 147.640778,343.632233 152.056595,342.618073 
	C152.448166,342.528107 153.940674,344.724609 153.951813,345.868591 
	C154.080002,359.024170 153.981857,372.181793 154.044662,385.338379 
	C154.056686,387.855103 153.238892,389.078064 150.596176,388.904144 
	C148.772079,388.784088 146.930511,388.809875 145.102524,388.894745 
	C141.998276,389.038879 139.000702,389.102600 138.765945,384.347504 
	C130.513138,390.641235 122.321060,391.478973 114.275803,385.866791 
	C104.854950,379.294952 103.402428,369.617310 105.267899,359.144897 
	C106.855598,350.231781 113.550041,343.218475 122.633430,342.201508 
	C126.919441,341.721619 131.485474,343.742798 136.246536,344.827667 
M139.414963,363.180359 
	C137.168350,355.790375 131.557755,352.400940 125.830208,354.973694 
	C120.565994,357.338348 118.076614,363.072052 119.677010,369.146088 
	C120.974335,374.069855 125.600006,377.525696 130.294067,377.078094 
	C135.523087,376.579468 139.115646,372.305115 139.627762,365.936707 
	C139.680450,365.281555 139.587173,364.614655 139.414963,363.180359 
z"/>
<path fill="#2B927A" opacity="1.000000" stroke="none" 
	d="
M166.321167,384.721252 
	C165.180435,383.473389 163.982712,382.603851 163.502075,381.438538 
	C162.638474,379.344727 162.205353,377.073395 161.592346,374.876221 
	C163.593842,374.459778 165.584442,373.765228 167.599152,373.686493 
	C171.453156,373.535828 175.421631,372.703857 178.362869,376.843079 
	C179.170395,377.979492 182.356277,377.865479 184.332047,377.559265 
	C185.430634,377.388947 186.988617,375.675873 187.046066,374.589691 
	C187.101120,373.548523 185.686996,371.814423 184.565445,371.438538 
	C180.794220,370.174774 176.834763,369.487366 173.004822,368.380554 
	C168.115829,366.967682 163.409866,365.160828 161.759277,359.592865 
	C159.816925,353.040741 163.444290,346.362671 171.021973,343.462952 
	C178.847977,340.468262 186.742844,340.754456 194.165756,344.909210 
	C198.419464,347.290070 201.186676,350.853180 201.221130,356.867249 
	C195.404892,356.074615 189.475204,359.579346 184.415024,354.002472 
	C183.490021,352.983002 180.868317,352.940399 179.225891,353.312469 
	C177.912186,353.610077 176.896271,355.222198 175.748184,356.250885 
	C176.678680,357.286407 177.424026,358.876526 178.572266,359.259888 
	C183.135330,360.783203 187.844650,361.860931 192.460968,363.234222 
	C197.674683,364.785309 201.320663,367.850952 201.680328,373.694519 
	C202.049149,379.687073 199.363037,384.102692 194.070023,386.615936 
	C184.683685,391.072662 175.429932,390.812378 166.321167,384.721252 
z"/>
<path fill="#299279" opacity="1.000000" stroke="none" 
	d="
M44.000134,330.131531 
	C51.155457,330.133301 57.822021,330.372040 64.462524,330.058594 
	C69.417297,329.824707 68.662102,332.990082 68.679214,335.938507 
	C68.695572,338.755035 69.341385,341.712952 64.711914,341.596191 
	C60.829006,341.498291 55.361568,340.764374 53.458485,342.883240 
	C51.419422,345.153564 52.620670,350.429321 52.595512,354.394562 
	C52.532162,364.377228 52.460430,374.362610 52.636562,384.342560 
	C52.697998,387.823792 51.521328,389.176056 48.034836,388.931244 
	C44.928459,388.713165 41.794674,388.885468 38.184093,388.885468 
	C38.081333,386.587433 37.937263,384.825287 37.934219,383.062866 
	C37.912960,370.750488 37.838036,358.437073 37.973160,346.126129 
	C38.010578,342.716858 36.889420,341.155487 33.384109,341.479279 
	C31.734272,341.631622 30.058857,341.506134 28.395035,341.508209 
	C21.445032,341.516876 21.665033,341.512299 21.518867,334.802612 
	C21.434332,330.921906 22.975569,329.948547 26.531330,330.087158 
	C32.179607,330.307373 37.843121,330.136780 44.000134,330.131531 
z"/>
<path fill="#289179" opacity="1.000000" stroke="none" 
	d="
M86.665672,388.838348 
	C74.464096,388.925934 74.466682,388.925934 74.463692,377.116241 
	C74.461128,366.965912 74.556572,356.813843 74.385208,346.666290 
	C74.329559,343.371002 75.497948,342.158966 78.723770,342.343842 
	C81.855003,342.523315 85.004585,342.382812 88.377205,342.382812 
	C88.856682,344.202179 89.253967,345.709686 89.779030,347.702026 
	C92.473862,345.916809 94.755035,344.087158 97.308136,342.794708 
	C100.516312,341.170532 102.849586,341.648163 102.519920,346.080170 
	C102.409149,347.569305 102.374794,349.088348 102.535164,350.568878 
	C102.991280,354.779633 101.892242,356.956970 96.947258,356.899872 
	C91.897263,356.841522 89.521431,359.741821 89.262032,365.446777 
	C88.975105,371.757477 89.268806,378.093719 89.028641,384.408142 
	C88.972000,385.897400 87.789948,387.343842 86.665672,388.838348 
z"/>
<path fill="#269078" opacity="1.000000" stroke="none" 
	d="
M312.919037,342.970306 
	C313.078217,342.900818 313.237396,342.831360 314.070526,342.781067 
	C318.872040,343.191833 322.999542,343.583435 327.127075,343.975006 
	C327.104492,357.319366 327.081879,370.663696 326.951538,384.856476 
	C324.882416,390.832642 320.535675,387.582275 317.348511,388.315155 
	C313.901398,389.107819 312.820587,387.266266 312.860168,383.834961 
	C313.017303,370.214996 312.921265,356.592102 312.919037,342.970306 
z"/>
<path fill="#2D937B" opacity="1.000000" stroke="none" 
	d="
M270.394043,353.488190 
	C280.001221,353.492249 289.163025,353.736023 298.304779,353.413452 
	C304.431702,353.197235 302.563171,357.335510 302.876678,360.489502 
	C303.219971,363.943115 302.760315,366.088837 298.266724,365.932739 
	C288.792206,365.603607 279.296082,365.738770 269.812775,365.907013 
	C266.552917,365.964874 264.918274,364.805725 265.580627,361.605835 
	C266.214996,358.541016 262.800507,353.099518 270.394043,353.488190 
z"/>
<path fill="#2B9279" opacity="1.000000" stroke="none" 
	d="
M312.381714,335.574890 
	C312.234863,335.244812 312.088043,334.914703 311.879944,333.938049 
	C312.163116,330.837921 312.507599,328.384369 312.852112,325.930786 
	C313.413025,325.392700 313.973907,324.854584 315.087280,324.149109 
	C316.416016,323.591736 317.192230,323.201782 317.968445,322.811829 
	C319.047211,322.830048 320.125977,322.848297 321.803284,323.163452 
	C324.340210,326.001373 326.278625,328.542358 328.217041,331.083344 
	C328.169067,331.511475 328.121094,331.939575 327.838470,332.873108 
	C327.532288,333.964844 327.460754,334.551178 327.389191,335.137543 
	C326.700897,335.906128 326.012573,336.674683 324.743469,337.750031 
	C321.192657,338.275238 318.222656,338.493683 315.252625,338.712158 
	C315.252625,338.712158 314.977875,338.939240 315.036011,338.518616 
	C314.190002,337.256958 313.285858,336.415924 312.381714,335.574890 
z"/>
<path fill="#B9DED7" opacity="1.000000" stroke="none" 
	d="
M312.528595,343.054871 
	C312.921265,356.592102 313.017303,370.214996 312.860168,383.834961 
	C312.820587,387.266266 313.901398,389.107819 317.348511,388.315155 
	C320.535675,387.582275 324.882416,390.832642 327.014343,385.316650 
	C328.920898,387.337158 328.594910,389.341492 325.976227,389.624176 
	C321.880005,390.066376 317.690887,389.962708 313.574188,389.652252 
	C312.681976,389.584930 311.230255,387.670288 311.218872,386.593994 
	C311.071655,372.652466 311.127258,358.708618 311.192719,344.765625 
	C311.195312,344.222076 311.809143,343.681427 312.528595,343.054871 
z"/>
<path fill="#B9DED7" opacity="1.000000" stroke="none" 
	d="
M315.290863,338.994751 
	C318.222656,338.493683 321.192657,338.275238 324.563599,338.001587 
	C324.606689,338.805969 324.248871,339.665527 324.065948,340.104889 
	C325.268494,341.285858 326.434692,342.431122 327.363983,343.775696 
	C322.999542,343.583435 318.872040,343.191833 314.295776,342.650238 
	C314.341064,341.425934 314.835083,340.351654 315.290863,338.994751 
z"/>
<path fill="#B9DED7" opacity="1.000000" stroke="none" 
	d="
M328.517578,331.015076 
	C326.278625,328.542358 324.340210,326.001373 322.208252,323.182373 
	C326.763916,322.926453 329.353394,325.987518 328.517578,331.015076 
z"/>
<path fill="#B9DED7" opacity="1.000000" stroke="none" 
	d="
M312.498566,325.999878 
	C312.507599,328.384369 312.163116,330.837921 311.729309,333.712097 
	C308.480133,331.236328 309.937347,328.629181 312.498566,325.999878 
z"/>
<path fill="#B9DED7" opacity="1.000000" stroke="none" 
	d="
M312.285553,335.944092 
	C313.285858,336.415924 314.190002,337.256958 315.169922,338.399353 
	C314.226929,337.904877 313.208160,337.109070 312.285553,335.944092 
z"/>
<path fill="#B9DED7" opacity="1.000000" stroke="none" 
	d="
M317.765167,322.583221 
	C317.192230,323.201782 316.416016,323.591736 315.299133,323.948914 
	C315.826294,323.395630 316.694092,322.875122 317.765167,322.583221 
z"/>
<path fill="#B9DED7" opacity="1.000000" stroke="none" 
	d="
M327.647186,335.078735 
	C327.460754,334.551178 327.532288,333.964844 327.852509,333.196655 
	C328.035858,333.683197 327.970520,334.351532 327.647186,335.078735 
z"/>
<path fill="#F8FCF8" opacity="1.000000" stroke="none" 
	d="
M278.546509,133.275238 
	C276.009033,150.919083 273.340576,168.179947 270.586792,185.427200 
	C267.436829,205.156067 264.125702,224.859711 261.094421,244.606506 
	C260.525909,248.310013 259.141663,249.596939 255.337265,249.577393 
	C228.012680,249.436920 200.686890,249.468597 173.361862,249.559769 
	C170.215332,249.570267 168.458481,248.834732 167.914001,245.392548 
	C162.037491,208.242340 156.051636,171.109436 150.114563,133.968765 
	C150.068130,133.678238 150.282639,133.345993 150.537506,132.485748 
	C151.927490,132.370956 153.518127,132.125626 155.108871,132.124893 
	C194.763885,132.106735 234.418930,132.106354 274.073914,132.149872 
	C275.508789,132.151443 276.943176,132.629974 278.546509,133.275238 
M209.525452,186.362503 
	C208.840973,187.320831 208.156494,188.279144 207.387009,189.754761 
	C207.426712,190.098724 207.466415,190.442688 207.198776,191.687576 
	C207.136505,193.312439 207.231354,194.961823 206.982452,196.557587 
	C206.237274,201.335098 208.488098,202.736771 212.804871,201.932541 
	C213.895233,201.729385 214.963028,201.405197 216.889114,201.269867 
	C218.604630,201.202164 220.320129,201.134476 222.584991,201.000931 
	C222.723907,200.332993 222.862823,199.665039 223.062500,198.209488 
	C222.956421,197.168030 222.850342,196.126572 222.967316,194.318954 
	C223.233490,191.802170 225.661194,188.999496 221.185333,186.834763 
	C219.805756,186.840225 218.426178,186.845688 216.487030,186.442154 
	C214.991821,186.636490 213.496597,186.830811 211.347336,186.857071 
	C210.897659,186.850815 210.447983,186.844559 209.525452,186.362503 
M241.178879,205.349960 
	C241.088776,205.835464 240.998672,206.320969 239.986710,206.870071 
	C234.315613,206.869827 228.644531,206.869598 222.626083,206.456192 
	C222.062790,206.935150 221.499512,207.414093 220.574646,208.411819 
	C219.473434,209.383377 218.372223,210.354919 216.536209,211.167542 
	C215.376663,212.556488 212.995300,214.800751 213.266464,215.188095 
	C214.522247,216.981949 216.514603,218.260162 218.752625,220.131927 
	C220.119781,221.185608 221.486938,222.239288 223.169189,223.996017 
	C230.998184,224.163010 238.826874,224.388504 246.656509,224.426605 
	C247.692322,224.431656 249.143188,223.759659 249.705261,222.929550 
	C253.696487,217.035126 259.054230,211.749985 258.771820,203.116760 
	C255.064331,195.624924 251.356827,188.133087 247.471481,180.281845 
	C243.016891,182.817627 239.632629,184.900864 236.104797,186.703064 
	C233.250519,188.161148 232.697388,189.724075 234.521744,192.545349 
	C237.043915,196.445801 239.160767,200.608353 241.178879,205.349960 
M189.187561,208.370239 
	C191.658752,203.685699 194.174362,199.023865 196.584091,194.307907 
	C197.981949,191.572220 197.300613,181.652008 195.284134,181.234299 
	C192.337906,180.623962 188.897018,181.368164 185.920090,182.323608 
	C184.110001,182.904556 182.367874,184.714478 181.305664,186.415878 
	C178.235214,191.333893 175.207123,196.332581 172.819809,201.597687 
	C171.780548,203.889709 171.492203,207.237640 172.370819,209.527359 
	C173.953613,213.652100 176.568451,217.408707 179.011337,221.149857 
	C179.453720,221.827301 181.136246,221.694946 182.388321,222.823196 
	C183.786606,223.816605 185.154312,225.614304 186.588287,225.668808 
	C194.143143,225.956055 201.714691,225.803391 209.592163,225.803391 
	C209.592163,220.466507 209.710403,215.704514 209.490143,210.958221 
	C209.447250,210.034088 208.072479,208.388748 207.337982,208.403091 
	C201.252121,208.522018 195.172379,208.953033 189.187561,208.370239 
M206.338379,151.554001 
	C204.662033,152.283813 202.280609,152.546158 201.432587,153.825165 
	C197.948715,159.079712 194.814056,164.581055 191.846756,170.149246 
	C191.289795,171.194382 191.565231,173.736969 192.347870,174.263336 
	C196.146469,176.818268 200.248611,178.921906 204.745621,181.470062 
	C208.027191,175.485748 211.043030,169.986038 214.723877,164.932465 
	C217.489166,168.842102 220.761063,172.497391 222.885513,176.728775 
	C225.286987,181.511948 229.419830,182.636459 233.822250,183.335236 
	C235.084335,183.535553 237.483658,182.183655 237.915024,181.011292 
	C239.579727,176.486816 240.835114,171.847321 237.289154,167.326431 
	C235.569489,165.133972 234.801849,162.209488 233.155243,159.941681 
	C230.579620,156.394409 228.242111,151.489807 224.675751,150.139618 
	C219.989090,148.365280 214.206802,149.392502 208.899445,149.470734 
	C208.259689,149.480164 207.643356,151.080658 206.338379,151.554001 
z"/>
<path fill="#EFF8F7" opacity="1.000000" stroke="none" 
	d="
M176.004532,103.637848 
	C168.109726,103.637596 160.713730,103.637596 152.503845,103.637596 
	C153.470917,101.406113 153.876892,100.202209 154.483994,99.110107 
	C160.063965,89.072411 165.751968,79.093849 171.233459,69.002983 
	C172.653976,66.387955 174.688965,65.002357 177.210373,66.082863 
	C178.525711,66.646515 179.523987,68.977158 179.836319,70.663292 
	C180.804703,75.891273 181.574432,81.175751 182.030121,86.471954 
	C182.326218,89.913116 183.793655,90.903572 187.121414,90.880623 
	C205.270096,90.755470 223.421143,90.728226 241.568878,90.913490 
	C245.234116,90.950912 246.561340,89.698570 246.885605,86.190529 
	C247.390564,80.727493 248.190765,75.282486 249.126114,69.874855 
	C249.366455,68.485260 250.462875,66.286095 251.372711,66.176613 
	C253.074188,65.971878 255.882660,66.465942 256.568420,67.640076 
	C263.192810,78.982346 269.473907,90.525223 275.826508,102.025475 
	C275.946411,102.242577 275.741821,102.638947 275.571930,103.638092 
	C242.620560,103.638092 209.561951,103.638092 176.004532,103.637848 
z"/>
<path fill="#F5FDFC" opacity="1.000000" stroke="none" 
	d="
M181.999939,123.311905 
	C168.502487,123.310982 155.504608,123.252098 142.507812,123.343437 
	C138.514069,123.371506 135.229324,122.358665 135.173538,117.861130 
	C135.118896,113.455971 138.299271,112.013344 142.295944,112.013985 
	C190.453171,112.021744 238.610413,112.029510 286.767639,112.023956 
	C290.657501,112.023506 293.868896,113.020828 294.206116,117.552780 
	C294.475677,121.175423 291.580170,123.292809 286.479706,123.296730 
	C251.819809,123.323395 217.159866,123.311310 181.999939,123.311905 
z"/>
<path fill="#F6FDFC" opacity="1.000000" stroke="none" 
	d="
M189.799057,79.127396 
	C189.233215,74.747589 188.734253,70.809280 188.170166,66.356857 
	C205.596405,66.356857 222.608826,66.356857 240.556183,66.356857 
	C239.959122,71.115036 239.533493,75.818413 238.637878,80.430519 
	C238.477448,81.256599 236.379700,82.235390 235.167572,82.247414 
	C221.352142,82.384392 207.533981,82.421471 193.719925,82.235161 
	C192.423523,82.217690 191.150070,80.498177 189.799057,79.127396 
z"/>
<path fill="#1B8D73" opacity="1.000000" stroke="none" 
	d="
M375.175842,408.037994 
	C373.053009,408.365387 371.348480,408.674957 368.448883,409.201599 
	C370.575684,404.150513 371.977478,399.991821 374.023468,396.178772 
	C376.415222,391.721252 377.319214,387.609375 375.152863,382.657654 
	C371.453979,374.202881 368.042633,365.593201 365.109039,356.847809 
	C364.015350,353.587555 364.341370,349.894257 361.433075,347.259003 
	C361.270660,347.111877 362.684174,344.250153 363.492310,344.182526 
	C366.403107,343.938873 369.368835,344.351410 372.050018,344.501343 
	C375.528259,354.008301 378.971222,363.418732 382.491730,373.041199 
	C387.246765,372.083984 387.433899,367.969391 388.712708,365.107330 
	C391.509216,358.848450 393.104187,351.960541 396.548370,346.132294 
	C397.786865,344.036530 402.923828,344.244537 406.281677,343.401184 
	C406.571259,343.957611 406.860809,344.514038 407.150391,345.070496 
	C404.805603,350.626404 402.488770,356.194336 400.110199,361.735748 
	C395.430725,372.637634 390.709686,383.521698 386.021759,394.419983 
	C384.658539,397.589050 383.244568,400.742493 382.045044,403.974091 
	C380.897369,407.065979 378.926849,408.554779 375.175842,408.037994 
z"/>
<path fill="#EDF8F7" opacity="1.000000" stroke="none" 
	d="
M139.488281,363.566772 
	C139.587173,364.614655 139.680450,365.281555 139.627762,365.936707 
	C139.115646,372.305115 135.523087,376.579468 130.294067,377.078094 
	C125.600006,377.525696 120.974335,374.069855 119.677010,369.146088 
	C118.076614,363.072052 120.565994,357.338348 125.830208,354.973694 
	C131.557755,352.400940 137.168350,355.790375 139.488281,363.566772 
z"/>
<path fill="#D5EE1B" opacity="1.000000" stroke="none" 
	d="
M207.016144,151.943710 
	C207.643356,151.080658 208.259689,149.480164 208.899445,149.470734 
	C214.206802,149.392502 219.989090,148.365280 224.675751,150.139618 
	C228.242111,151.489807 230.579620,156.394409 233.155243,159.941681 
	C234.801849,162.209488 235.569489,165.133972 237.289154,167.326431 
	C240.835114,171.847321 239.579727,176.486816 237.915024,181.011292 
	C237.483658,182.183655 235.084335,183.535553 233.822250,183.335236 
	C229.419830,182.636459 225.286987,181.511948 222.885513,176.728775 
	C220.761063,172.497391 217.489166,168.842102 214.296066,164.499969 
	C211.584229,160.026230 209.300186,155.984970 207.016144,151.943710 
z"/>
<path fill="#D5EE1B" opacity="1.000000" stroke="none" 
	d="
M182.246246,221.936462 
	C181.136246,221.694946 179.453720,221.827301 179.011337,221.149857 
	C176.568451,217.408707 173.953613,213.652100 172.370819,209.527359 
	C171.492203,207.237640 171.780548,203.889709 172.819809,201.597687 
	C175.207123,196.332581 178.235214,191.333893 181.305664,186.415878 
	C182.367874,184.714478 184.110001,182.904556 185.920090,182.323608 
	C188.897018,181.368164 192.337906,180.623962 195.284134,181.234299 
	C197.300613,181.652008 197.981949,191.572220 196.584091,194.307907 
	C194.174362,199.023865 191.658752,203.685699 189.044312,208.985291 
	C186.682800,213.712402 184.464523,217.824432 182.246246,221.936462 
z"/>
<path fill="#D4EE10" opacity="1.000000" stroke="none" 
	d="
M222.973450,206.869354 
	C228.644531,206.869598 234.315613,206.869827 240.881470,206.967117 
	C246.442657,207.426071 251.109100,207.787994 256.544281,208.209518 
	C254.660995,211.638733 253.017227,214.127777 251.870819,216.827957 
	C249.724167,221.884140 246.057861,223.371552 240.750259,223.061600 
	C234.809647,222.714661 228.821533,223.180679 222.854095,223.292938 
	C221.486938,222.239288 220.119781,221.185608 218.424316,219.601196 
	C217.065598,217.808807 216.035172,216.547150 214.922806,215.185165 
	C215.761642,213.806763 216.516327,212.566605 217.271027,211.326462 
	C218.372223,210.354919 219.473434,209.383377 221.065994,208.176178 
	C222.029373,207.583466 222.501419,207.226410 222.973450,206.869354 
z"/>
<path fill="#31957D" opacity="1.000000" stroke="none" 
	d="
M182.317291,222.379822 
	C184.464523,217.824432 186.682800,213.712402 188.995926,209.445007 
	C195.172379,208.953033 201.252121,208.522018 207.337982,208.403091 
	C208.072479,208.388748 209.447250,210.034088 209.490143,210.958221 
	C209.710403,215.704514 209.592163,220.466507 209.592163,225.803391 
	C201.714691,225.803391 194.143143,225.956055 186.588287,225.668808 
	C185.154312,225.614304 183.786606,223.816605 182.317291,222.379822 
z"/>
<path fill="#2C9379" opacity="1.000000" stroke="none" 
	d="
M206.677261,151.748856 
	C209.300186,155.984970 211.584229,160.026230 213.963562,164.276917 
	C211.043030,169.986038 208.027191,175.485748 204.745621,181.470062 
	C200.248611,178.921906 196.146469,176.818268 192.347870,174.263336 
	C191.565231,173.736969 191.289795,171.194382 191.846756,170.149246 
	C194.814056,164.581055 197.948715,159.079712 201.432587,153.825165 
	C202.280609,152.546158 204.662033,152.283813 206.677261,151.748856 
z"/>
<path fill="#2A9179" opacity="1.000000" stroke="none" 
	d="
M241.451202,204.658646 
	C239.160767,200.608353 237.043915,196.445801 234.521744,192.545349 
	C232.697388,189.724075 233.250519,188.161148 236.104797,186.703064 
	C239.632629,184.900864 243.016891,182.817627 247.471481,180.281845 
	C251.356827,188.133087 255.064331,195.624924 258.414459,203.627228 
	C252.521805,204.311356 246.986496,204.485001 241.451202,204.658646 
z"/>
<path fill="#E9F583" opacity="1.000000" stroke="none" 
	d="
M216.041199,201.136612 
	C214.963028,201.405197 213.895233,201.729385 212.804871,201.932541 
	C208.488098,202.736771 206.237274,201.335098 206.982452,196.557587 
	C207.231354,194.961823 207.136505,193.312439 207.646667,191.385956 
	C209.491409,191.577011 210.888260,192.069687 212.285126,192.562363 
	C212.190552,190.716614 212.095978,188.870880 212.001389,187.025131 
	C213.496597,186.830811 214.991821,186.636490 216.619537,186.992767 
	C215.499222,192.704727 216.552002,193.829315 220.767014,192.670456 
	C221.230530,190.538864 221.615067,188.770523 221.999603,187.002197 
	C225.661194,188.999496 223.233490,191.802170 222.465546,194.682098 
	C215.643539,195.042236 214.605881,196.109451 216.041199,201.136612 
z"/>
<path fill="#DDF09D" opacity="1.000000" stroke="none" 
	d="
M241.315033,205.004303 
	C246.986496,204.485001 252.521805,204.311356 258.440613,203.985718 
	C259.054230,211.749985 253.696487,217.035126 249.705261,222.929550 
	C249.143188,223.759659 247.692322,224.431656 246.656509,224.426605 
	C238.826874,224.388504 230.998184,224.163010 223.011642,223.644470 
	C228.821533,223.180679 234.809647,222.714661 240.750259,223.061600 
	C246.057861,223.371552 249.724167,221.884140 251.870819,216.827957 
	C253.017227,214.127777 254.660995,211.638733 256.544281,208.209518 
	C251.109100,207.787994 246.442657,207.426071 241.342407,206.935318 
	C240.998672,206.320969 241.088776,205.835464 241.315033,205.004303 
z"/>
<path fill="#E0F25A" opacity="1.000000" stroke="none" 
	d="
M216.465149,201.203247 
	C214.605881,196.109451 215.643539,195.042236 222.354034,195.065186 
	C222.850342,196.126572 222.956421,197.168030 222.785706,198.779968 
	C222.351151,199.922546 222.193405,200.494659 222.035645,201.066772 
	C220.320129,201.134476 218.604630,201.202164 216.465149,201.203247 
z"/>
<path fill="#E0F25A" opacity="1.000000" stroke="none" 
	d="
M221.592468,186.918488 
	C221.615067,188.770523 221.230530,190.538864 220.767014,192.670456 
	C216.552002,193.829315 215.499222,192.704727 216.899323,187.197266 
	C218.426178,186.845688 219.805756,186.840225 221.592468,186.918488 
z"/>
<path fill="#D5EC2D" opacity="1.000000" stroke="none" 
	d="
M211.674362,186.941101 
	C212.095978,188.870880 212.190552,190.716614 212.285126,192.562363 
	C210.888260,192.069687 209.491409,191.577011 207.800323,190.935501 
	C207.466415,190.442688 207.426712,190.098724 207.703552,189.390961 
	C208.679489,188.297546 209.338898,187.567932 209.998322,186.838318 
	C210.447983,186.844559 210.897659,186.850815 211.674362,186.941101 
z"/>
<path fill="#DDF09D" opacity="1.000000" stroke="none" 
	d="
M216.903625,211.247009 
	C216.516327,212.566605 215.761642,213.806763 214.922806,215.185165 
	C216.035172,216.547150 217.065598,217.808807 218.169586,219.396774 
	C216.514603,218.260162 214.522247,216.981949 213.266464,215.188095 
	C212.995300,214.800751 215.376663,212.556488 216.903625,211.247009 
z"/>
<path fill="#E9F583" opacity="1.000000" stroke="none" 
	d="
M209.761887,186.600403 
	C209.338898,187.567932 208.679489,188.297546 207.746063,189.132294 
	C208.156494,188.279144 208.840973,187.320831 209.761887,186.600403 
z"/>
<path fill="#E9F583" opacity="1.000000" stroke="none" 
	d="
M222.310318,201.033844 
	C222.193405,200.494659 222.351151,199.922546 222.755325,199.173767 
	C222.862823,199.665039 222.723907,200.332993 222.310318,201.033844 
z"/>
<path fill="#DDF09D" opacity="1.000000" stroke="none" 
	d="
M222.799774,206.662781 
	C222.501419,207.226410 222.029373,207.583466 221.246780,207.916779 
	C221.499512,207.414093 222.062790,206.935150 222.799774,206.662781 
z"/>
</svg>